<?xml version="1.0" standalone="no"?>
<!DOCTYPE svg PUBLIC "-//W3C//DTD SVG 1.1//EN" "http://www.w3.org/Graphics/SVG/1.1/DTD/svg11.dtd" >
<svg xmlns="http://www.w3.org/2000/svg">
<metadata>
This is a custom SVG webfont generated by Font Squirrel.
Copyright   : Copyright 19992009 Ron Carpenter and Dalton Maag Ltd All rights reserved The use of this font without a valid license is illegal and will be prosecuted
Designer    : Ron Carpenter
Foundry     : Ron Carpenter and Dalton Maag Ltd
Foundry URL : httpwwwdaltonmaagcom
</metadata>
<defs>
<font id="LexiaBoldItalic" horiz-adv-x="1110" >
<font-face units-per-em="2048" ascent="1638" descent="-410" />
<missing-glyph horiz-adv-x="512" />
<glyph unicode=" "  horiz-adv-x="512" />
<glyph unicode="&#x09;" horiz-adv-x="512" />
<glyph unicode="&#xa0;" horiz-adv-x="512" />
<glyph unicode="!" horiz-adv-x="626" d="M168 125q0 37 13.5 69.5t36 56t52 38t62.5 14.5q66 0 108.5 -44t42.5 -116q0 -33 -12 -63.5t-33.5 -55t-52.5 -39t-68 -14.5q-25 0 -51 10.5t-47.5 30t-36 48t-14.5 65.5zM274 416l207 1077h312l-299 -1077h-220z" />
<glyph unicode="&#x22;" horiz-adv-x="1052" d="M403 975l101 518h299l-215 -518h-185zM797 975l100 518h299l-215 -518h-184z" />
<glyph unicode="#" horiz-adv-x="1304" d="M160 412l51 182h201l86 303h-199l51 182h199l119 414h227l-119 -414h219l119 414h227l-118 -414h200l-51 -182h-201l-86 -303h199l-51 -182h-201l-117 -412h-227l117 412h-219l-117 -412h-227l116 412h-198zM639 594h219l86 303h-219z" />
<glyph unicode="$" d="M35 0l92 481q27 14 51.5 16.5t36.5 2.5q16 0 42 -4t52 -21q-4 -23 -7 -54.5t-3 -68.5q0 -55 53 -112.5t158 -79.5l88 444l-55 19q-76 25 -129.5 56.5t-87 74.5t-50 97t-16.5 126q0 82 31 158.5t90 136t149.5 94.5t210.5 35h19l28 139h142l-31 -158q61 -18 107.5 -48.5 t72.5 -78.5l21 109q27 10 49 13t41 3q16 0 40.5 -3t47.5 -13l-92 -455q-29 -10 -51.5 -12t-38.5 -2q-14 0 -39 4t-49 19q4 23 6 51t2 67q0 53 -38 99.5t-116 68.5l-82 -405l35 -13q82 -29 141.5 -61.5t98.5 -75.5t58.5 -99t19.5 -134q0 -96 -35 -179t-99.5 -143.5 t-157.5 -95.5t-208 -35h-21l-39 -192h-143l43 211q-72 16 -133 50t-104 101l-23 -137q-27 -10 -49.5 -12t-38.5 -2t-40.5 4t-49.5 14zM498 997q0 -53 30.5 -88t118.5 -65l76 377q-111 -4 -168 -68t-57 -156zM649 152q117 10 173.5 70.5t56.5 152.5q0 66 -32 109.5t-116 72.5 z" />
<glyph unicode="%" horiz-adv-x="1847" d="M227 1024q0 80 30 147.5t80 118.5t118.5 80t146.5 29q76 0 143.5 -30t118.5 -80t80 -118.5t29 -146.5t-29 -147.5t-80 -122t-118.5 -82t-143.5 -29.5q-78 0 -146.5 29.5t-119.5 81t-80 121t-29 149.5zM410 1024q0 -92 56 -144.5t134 -52.5q86 0 139.5 57.5t53.5 139.5 q0 39 -15.5 75t-41 61.5t-60.5 40.5t-74 15q-41 0 -75.5 -15t-61.5 -41.5t-41 -61.5t-14 -74zM422 -33l1073 1432h205l-1073 -1432h-205zM1149 346q0 80 29.5 147.5t80 119t119 80t146.5 28.5q76 0 143.5 -30t118.5 -80t79.5 -118.5t28.5 -146.5t-28.5 -146.5t-79.5 -120.5 t-119 -82t-143 -30q-78 0 -146.5 30t-120 81t-80 119.5t-28.5 148.5zM1329 346q0 -92 57.5 -144.5t135.5 -52.5q41 0 75.5 15.5t60 43.5t40 62.5t14.5 75.5q0 82 -55 137.5t-133 55.5q-41 0 -77 -15.5t-61.5 -42t-41 -61.5t-15.5 -74z" />
<glyph unicode="&#x26;" horiz-adv-x="1423" d="M76 326q0 76 22.5 147.5t72.5 134t130 115.5t197 94l-32.5 64.5t-24 58.5t-13.5 59.5t-4 71.5q0 86 35 151.5t93 110.5t131 68.5t151 23.5q127 0 224 -33.5t169 -95.5l-39 -192q-76 61 -150.5 99t-177.5 38q-94 0 -140 -51t-46 -121q0 -35 18.5 -82t52.5 -100l244 -385 q59 104 107 252h334q8 -31 9 -42.5t1 -21.5q0 -66 -43 -104h-127q-35 -76 -72 -143.5t-84 -133.5l92 -141h201q8 -31 9 -42t1 -22q0 -66 -43 -104h-352l-78 121q-90 -72 -199.5 -113t-244.5 -41q-117 0 -198 36t-131 90t-72.5 117t-22.5 116zM332 375q0 -39 12 -76t39 -64.5 t64.5 -45t91.5 -17.5q78 0 152.5 29.5t139.5 95.5l-235 362q-78 -25 -128 -57.5t-81 -70t-43 -77.5t-12 -79z" />
<glyph unicode="'" horiz-adv-x="659" d="M403 975l101 518h299l-215 -518h-185z" />
<glyph unicode="(" horiz-adv-x="790" d="M223 360q0 166 44 334t122 325t186.5 298t237.5 254h244q-150 -154 -254.5 -317.5t-169 -323.5t-94 -309.5t-29.5 -272.5q0 -221 38 -393t93 -324h-225q-35 61 -69 139t-61.5 170.5t-45 197.5t-17.5 222z" />
<glyph unicode=")" horiz-adv-x="790" d="M-25 -367q150 154 254.5 318t169 323.5t94 309t29.5 272.5q0 221 -38 393t-93 324h225q35 -61 69 -139t61.5 -170.5t45 -197.5t17.5 -222q0 -166 -44 -334t-122 -324.5t-186.5 -298t-237.5 -254.5h-244z" />
<glyph unicode="*" horiz-adv-x="866" d="M319 1221l68 192l195 -70l-9 209h205l-8 -209l195 74l67 -194l-201 -58l130 -168l-173 -112l-112 172l-111 -172l-172 110l127 170z" />
<glyph unicode="+" d="M178 578v215h395v395h215v-395h394v-215h-394v-394h-215v394h-395z" />
<glyph unicode="," horiz-adv-x="649" d="M92 -387l27 168q86 39 131 83t63 107q-37 2 -62.5 18.5t-43 40t-24.5 51.5t-7 54q0 90 46 136t118 46q86 0 134 -62t48 -155q0 -96 -34.5 -179t-94 -146.5t-137.5 -105.5t-164 -56z" />
<glyph unicode="-" horiz-adv-x="747" d="M195 518q0 47 12 83t41 77h514q10 -47 11 -65.5t1 -28.5q0 -47 -12 -84t-41 -76h-514q-10 43 -11 62.5t-1 31.5z" />
<glyph unicode="." horiz-adv-x="612" d="M170 125q0 37 13.5 69.5t36 56t52 38t62.5 14.5q66 0 108.5 -44t42.5 -116q0 -33 -12 -63.5t-33.5 -55t-52.5 -39t-68 -14.5q-25 0 -51 10.5t-47.5 30t-36 48t-14.5 65.5z" />
<glyph unicode="/" horiz-adv-x="681" d="M-8 -37l774 1589h225l-774 -1589h-225z" />
<glyph unicode="0" d="M172 438q0 96 16.5 205t50 216.5t86 204.5t123 172t160.5 119t201 44t186.5 -37t123.5 -100.5t69.5 -146.5t21.5 -175q0 -94 -16 -203.5t-50 -217t-85 -208t-123 -176.5t-164 -122t-205 -46q-127 0 -204.5 49.5t-119.5 121t-56.5 153t-14.5 147.5zM434 422 q0 -86 14.5 -137.5t34.5 -73.5q23 -25 47.5 -33t57.5 -8q72 0 133 61q49 49 91 128t71.5 174.5t46 201t16.5 207.5q0 92 -13 141.5t-36 72t-47.5 31.5t-54.5 9q-74 0 -136 -61q-49 -49 -91 -127t-71.5 -173.5t-46 -202t-16.5 -210.5z" />
<glyph unicode="1" d="M207 68q0 33 9 58.5t28 53.5h237l201 1006h-244q-6 35 -7 47t-1 20q0 33 9.5 58.5t27.5 54.5h512l-238 -1186h232q6 -35 7 -47t1 -20q0 -33 -9 -58.5t-28 -54.5h-729q-6 33 -7 45.5t-1 22.5z" />
<glyph unicode="2" d="M45 0q33 164 100.5 275.5t158.5 195.5t200 152l225 143q43 27 81 55.5t66.5 61t45 69.5t16.5 84q0 72 -47 116t-143 44q-121 0 -223.5 -51t-213.5 -156l39 262q35 27 78 52.5t96.5 47t119 35t144.5 13.5q92 0 168 -23.5t131.5 -67.5t86 -107.5t30.5 -143.5 q0 -104 -40 -184t-111 -146q-72 -68 -169 -128l-195 -122q-97 -61 -181 -126.5t-129 -145.5h479l45 227q35 12 59.5 15.5t41.5 3.5q20 0 46.5 -5.5t59.5 -19.5l-84 -426h-981z" />
<glyph unicode="3" d="M94 106l45 230q82 -66 177.5 -112t224.5 -46q74 0 128 20.5t91 54.5t55.5 79t18.5 96q0 57 -18.5 95t-51.5 59.5t-76 30t-94 8.5h-76q-6 35 -7 48t-1 23q0 33 9 60.5t28 56.5h67q59 0 112.5 17.5t93.5 47t63.5 71.5t23.5 91q0 29 -9 57.5t-31.5 51t-58.5 37t-95 14.5 q-72 0 -131.5 -16.5t-109.5 -43t-93 -57t-82 -61.5l41 248q96 66 202.5 99.5t225.5 33.5q90 0 162.5 -23.5t124 -65.5t79 -99.5t27.5 -127.5q0 -139 -70.5 -228t-187.5 -134q195 -72 195 -279q0 -86 -32 -171t-98.5 -152.5t-170 -109.5t-246.5 -42q-82 0 -149.5 12.5 t-123 32t-100.5 44.5t-82 50z" />
<glyph unicode="4" d="M100 338l41 203l756 858h236l-179 -893h193q6 -23 7 -39t1 -25q0 -33 -10 -59.5t-27 -44.5h-198l-31 -158h133q6 -35 7 -47t1 -20q0 -33 -9 -58.5t-28 -54.5h-540q-6 33 -7.5 45t-1.5 23q0 33 9.5 58.5t27.5 53.5h168l31 158h-580zM344 506h371l110 543z" />
<glyph unicode="5" d="M131 84l47 246q51 -43 94 -72t85 -47t86 -25.5t98 -7.5q61 0 116.5 22.5t97.5 65.5t66.5 106.5t24.5 145.5q0 98 -43 150.5t-137 52.5q-78 0 -135.5 -35t-104.5 -100h-193l236 780h719q10 -27 12 -48.5t2 -33.5q0 -72 -43 -133h-549l-92 -301q27 18 52.5 30.5t55 21.5 t65.5 13.5t83 4.5q59 0 118.5 -19.5t108 -62.5t78 -111t29.5 -166q0 -117 -35 -225.5t-104.5 -191.5t-174 -132t-245.5 -49q-84 0 -149.5 12.5t-114.5 30t-87 39t-67 39.5z" />
<glyph unicode="6" d="M193 459q0 176 43 345t128 301t214 212t301 80q63 0 110 -6.5t85 -18.5t74 -30l77 -37l-39 -205q-45 25 -83 43t-73 29.5t-71.5 16.5t-77.5 5q-78 0 -138.5 -33t-104.5 -85t-76 -120.5t-50 -138.5q53 47 113.5 77t152.5 30q74 0 141.5 -21.5t120 -69t83 -121t30.5 -177.5 q0 -131 -37 -235.5t-102.5 -178.5t-159.5 -114t-207 -40q-117 0 -203 35t-142 98.5t-82.5 154.5t-26.5 204zM459 391q0 -94 45 -158.5t147 -64.5q49 0 93 23.5t77 68.5t52.5 107.5t19.5 140.5q0 45 -9.5 84t-31 68.5t-57 46t-86.5 16.5q-61 0 -107.5 -26.5t-78 -71.5 t-48 -105.5t-16.5 -128.5z" />
<glyph unicode="7" d="M225 0l783 1149h-486l-45 -234q-37 -10 -60.5 -13t-39.5 -3q-25 0 -47.5 5t-59.5 20l86 442h942l-36 -180l-748 -1186h-289z" />
<glyph unicode="8" d="M143 352q0 55 16.5 114.5t52.5 114t92 101.5t136 80q-53 35 -87 95t-34 149q0 76 30 147.5t89.5 125.5t147.5 87t202 33q127 0 209 -29t129.5 -75t65.5 -104t18 -120q0 -66 -19.5 -120t-52 -97t-75.5 -76t-92 -57q80 -47 119.5 -122t39.5 -161q0 -88 -31.5 -172 t-96 -150.5t-163 -107.5t-229.5 -41q-127 0 -215 31t-144 83t-82 122.5t-26 148.5zM403 362q0 -109 57.5 -154.5t162.5 -45.5q55 0 101 21.5t79 57t51 85t18 104.5q0 86 -47 143.5t-157 57.5q-123 0 -194 -71t-71 -198zM573 995q0 -72 35 -122t131 -50q59 0 100.5 20.5 t66 52.5t35.5 70t11 74q0 27 -5 56.5t-23.5 56.5t-52 44t-91.5 17q-55 0 -95 -21.5t-64.5 -53t-36 -70.5t-11.5 -74z" />
<glyph unicode="9" d="M125 63l55 228q86 -70 159 -92.5t157 -22.5q78 0 138 28.5t106 80t78 118t50 144.5q-53 -47 -113.5 -77t-152.5 -30q-74 0 -141.5 21.5t-119.5 69t-83 121t-31 177.5q0 131 37 235.5t102.5 178.5t158.5 114t208 40q117 0 203 -35t142.5 -98.5t83 -154.5t26.5 -204 q0 -176 -43 -345t-127 -301t-212 -212t-296 -80q-68 0 -118 5t-93 16.5t-84 29.5t-90 45zM487 856q0 -45 9.5 -84t31 -68.5t57.5 -46t87 -16.5q61 0 107 26.5t79 71.5t49.5 105.5t16.5 128.5q0 109 -46.5 166t-148.5 57q-111 0 -176.5 -92t-65.5 -248z" />
<glyph unicode=":" horiz-adv-x="612" d="M184 125q0 37 13.5 69.5t36 56t52 38t62.5 14.5q66 0 109 -44t43 -116q0 -33 -12.5 -63.5t-34 -55t-52 -39t-67.5 -14.5q-25 0 -51.5 10.5t-48 30t-36 48t-14.5 65.5zM338 891q0 37 13.5 69.5t36 56t52 38t62.5 14.5q66 0 108.5 -44t42.5 -116q0 -33 -12 -63.5t-33.5 -55 t-52.5 -39t-68 -14.5q-25 0 -51 10.5t-47.5 30t-36 48t-14.5 65.5z" />
<glyph unicode=";" horiz-adv-x="606" d="M92 -387l27 168q86 39 131 83t63 107q-37 2 -62.5 18.5t-43 40t-24.5 51.5t-7 54q0 90 46 136t118 46q86 0 134 -62t48 -155q0 -96 -34.5 -179t-94 -146.5t-137.5 -105.5t-164 -56zM332 885q0 37 13 69.5t35.5 56t52.5 38t63 14.5q66 0 108.5 -44t42.5 -116 q0 -33 -12 -63.5t-33.5 -55t-52.5 -39t-68 -14.5q-25 0 -51.5 10.5t-48 30t-35.5 48t-14 65.5z" />
<glyph unicode="&#x3c;" d="M199 596v180l968 412v-236l-641 -266l641 -266v-234z" />
<glyph unicode="=" d="M190 395v203h1004v-203h-1004zM190 772v203h1004v-203h-1004z" />
<glyph unicode="&#x3e;" d="M207 186v234l641 266l-641 266v236l969 -412v-180z" />
<glyph unicode="?" horiz-adv-x="1187" d="M377 1098l39 268l91 58q48 30 107.5 53.5t132 38t162.5 14.5q92 0 166 -26.5t125 -73t78 -106.5t27 -128q0 -82 -24 -144.5t-63.5 -115.5t-94.5 -100l-115 -97l-97 -81q-41 -36 -68.5 -71.5t-46 -74.5t-28.5 -88h-244q16 96 44 161.5t72 121t110 112.5l157 135 q53 45 89 89t36 120q0 23 -9 50.5t-31.5 51t-61.5 40t-96 16.5q-133 0 -238.5 -59.5t-218.5 -163.5zM444 125q0 37 13.5 69.5t36 56t52 38t62.5 14.5q66 0 109 -44t43 -116q0 -33 -12.5 -63.5t-34 -55t-52 -39t-67.5 -14.5q-25 0 -51.5 10.5t-48 30t-36 48t-14.5 65.5z" />
<glyph unicode="@" horiz-adv-x="1732" d="M238 522q0 174 64.5 320.5t176 251t260 163t314.5 58.5q150 0 283.5 -48t236 -134t163 -206t60.5 -263q0 -141 -45 -246t-124 -173.5t-185.5 -102t-229.5 -33.5h-100l23 135q-39 -55 -109 -105.5t-174 -50.5q-53 0 -93 18.5t-71 47.5q-49 47 -71.5 115.5t-22.5 140.5 q0 154 51 258t117 174q72 72 150.5 99.5t154.5 27.5q137 0 203 -113l55 90h133l-135 -661q74 6 126 38.5t86 83t49.5 114t15.5 128.5q0 111 -43.5 201t-118 152.5t-174 96.5t-211.5 34q-133 0 -244 -45.5t-190.5 -128t-123.5 -200.5t-44 -261q0 -127 39.5 -231.5 t117.5 -179.5t192.5 -116t266.5 -41q61 0 131 10.5t141.5 31t143 52t139.5 76.5l96 -159q-137 -88 -302 -140.5t-351 -52.5t-339 52.5t-261.5 151.5t-167.5 243.5t-59 326.5zM809 430q0 -96 30.5 -133t73.5 -37q47 0 95.5 32t88.5 87t65.5 129t25.5 156q0 84 -36 116.5 t-87 32.5q-49 0 -95 -28.5t-82 -80t-57.5 -122t-21.5 -152.5z" />
<glyph unicode="A" horiz-adv-x="1476" d="M25 68q0 33 9 58.5t27 53.5h117l692 1331h297l146 -1331h125q6 -35 7 -47t1 -20q0 -33 -9.5 -58.5t-27.5 -54.5h-537q-6 33 -7 45t-1 23q0 33 9.5 58.5t27.5 53.5h154l-27 269h-471l-137 -269h137q6 -35 7 -47t1 -20q0 -33 -9 -58.5t-28 -54.5h-495q-6 33 -7 45.5 t-1 22.5zM649 633h361l-60 592z" />
<glyph unicode="B" horiz-adv-x="1347" d="M66 68q0 33 9 58.5t27 53.5h131l228 1133h-127q-6 35 -7 47t-1 20q0 33 9 58.5t27 54.5h601q135 0 218 -37t129 -90t62.5 -112.5t16.5 -106.5q0 -129 -68 -223.5t-184 -143.5q86 -29 141 -97.5t55 -182.5q0 -117 -44 -210t-117.5 -157.5t-169 -98.5t-197.5 -34h-731 q-6 33 -7 45.5t-1 22.5zM492 188h299q63 0 113 25t86 64.5t55.5 92t19.5 109.5q0 100 -53.5 151.5t-169.5 51.5h-252zM629 870h194q135 0 216 64.5t81 206.5q0 31 -8 60.5t-29.5 52t-59.5 37t-95 14.5h-213z" />
<glyph unicode="C" horiz-adv-x="1409" d="M233 594q0 104 19.5 205.5t54.5 193.5t83 172t106 140q111 117 233.5 171t263.5 54q117 0 214.5 -38t142.5 -105l20 102q33 10 56.5 14t39.5 4q20 0 49 -4t58 -16l-119 -598q-29 -14 -55.5 -16.5t-42.5 -2.5q-18 0 -45 4.5t-64 20.5l16.5 89t8.5 122q0 96 -64.5 156.5 t-199.5 60.5q-109 0 -198 -61.5t-154.5 -163t-101.5 -232.5t-36 -270q0 -211 92 -306t258 -95q143 0 257 60t231 159l-51 -305q-86 -57 -210 -101.5t-278 -44.5q-168 0 -279.5 52.5t-179 140.5t-96.5 201.5t-29 236.5z" />
<glyph unicode="D" horiz-adv-x="1441" d="M66 68q0 33 9 58.5t27 53.5h131l228 1133h-127q-6 35 -7 47t-1 20q0 33 9 58.5t27 54.5h576q176 0 287.5 -51t175 -132t87 -184.5t23.5 -207.5q0 -240 -74.5 -421.5t-217.5 -312.5q-96 -86 -221.5 -135t-266.5 -49h-657q-6 33 -7 45.5t-1 22.5zM502 195h176 q104 0 191 36.5t157 106.5q96 94 148.5 241.5t52.5 327.5q0 78 -14.5 148.5t-52.5 125t-104.5 86t-170.5 31.5h-160z" />
<glyph unicode="E" horiz-adv-x="1247" d="M66 68q0 33 9 58.5t27 53.5h131l228 1133h-127q-6 35 -7 47t-1 20q0 33 9 58.5t27 54.5h1068l-91 -449q-37 -10 -60.5 -13t-39.5 -3q-25 0 -47.5 5t-58.5 20l49 245h-457l-88 -434h530q8 -31 9.5 -48t1.5 -28q0 -35 -10.5 -61.5t-28.5 -56.5h-541l-96 -475h491l51 258 q35 12 59.5 15t41.5 3q20 0 47 -5t59 -20l-86 -446h-1091q-6 33 -7 45.5t-1 22.5z" />
<glyph unicode="F" horiz-adv-x="1150" d="M66 68q0 33 9 58.5t27 53.5h131l228 1133h-127q-6 35 -7 47t-1 20q0 33 9 58.5t27 54.5h1049l-90 -449q-37 -10 -60.5 -13t-39.5 -3q-25 0 -47.5 5t-59.5 20l49 245h-438l-88 -434h487q8 -31 9.5 -48t1.5 -28q0 -35 -10.5 -61.5t-28.5 -56.5h-498l-100 -490h151 q6 -35 7 -47t1 -20q0 -33 -10 -58.5t-39 -54.5h-534q-6 33 -7 45.5t-1 22.5z" />
<glyph unicode="G" horiz-adv-x="1490" d="M236 569q0 215 72.5 411t207.5 335q98 98 225 156.5t275 58.5q94 0 184 -32t143 -107l25 100q33 10 56.5 14t39.5 4q20 0 49 -4t58 -16l-111 -551q-29 -14 -55.5 -16t-42.5 -2q-18 0 -45 4t-64 20v4q0 14 5.5 54t5.5 106q0 88 -54.5 150.5t-187.5 62.5 q-106 0 -197.5 -60.5t-159 -161t-106.5 -231.5t-39 -272q0 -117 29 -193.5t74 -123t101 -64.5t112 -18q43 0 75.5 2t60 7t53.5 13t56 21l66 329h-180q-6 35 -7.5 47.5t-1.5 20.5q0 63 37 113h557q6 -33 7.5 -45.5t1.5 -22.5q0 -61 -37 -113h-111l-98 -483l-85 -39.5 t-110.5 -40t-140.5 -31t-172 -12.5q-166 0 -276.5 60.5t-176 151.5t-92 197.5t-26.5 196.5z" />
<glyph unicode="H" horiz-adv-x="1488" d="M66 68q0 33 9 58.5t27 53.5h131l228 1133h-127q-6 35 -7 47t-1 20q0 33 9 58.5t27 54.5h525q6 -33 7 -45t1 -23q0 -33 -9 -58.5t-28 -53.5h-131l-86 -430h557l86 430h-127q-6 35 -7 47t-1 20q0 33 9 58.5t28 54.5h524q6 -33 7 -45t1 -23q0 -33 -9 -58.5t-28 -53.5h-131 l-227 -1133h127q6 -35 7 -47t1 -20q0 -33 -9 -58.5t-28 -54.5h-524q-6 33 -7 45t-1 23q0 33 9 58.5t28 53.5h131l102 508h-559l-100 -508h127q6 -35 7 -47t1 -20q0 -33 -9.5 -58.5t-27.5 -54.5h-524q-6 33 -7 45.5t-1 22.5z" />
<glyph unicode="I" horiz-adv-x="694" d="M82 68q0 33 9 58.5t28 53.5h131l227 1133h-127q-6 35 -7 47t-1 20q0 33 9 58.5t28 54.5h524q6 -33 7 -45t1 -23q0 -33 -9 -58.5t-28 -53.5h-131l-227 -1133h127q6 -35 7 -47t1 -20q0 -33 -9 -58.5t-28 -54.5h-524q-6 33 -7 45.5t-1 22.5z" />
<glyph unicode="J" horiz-adv-x="1028" d="M84 82l45 240q66 -55 139.5 -91t147.5 -36q49 0 88 12t67.5 40.5t50 80t37.5 137.5l170 848h-157q-6 35 -7 47t-1 20q0 33 9 58.5t27 54.5h562q6 -33 7 -45t1 -23q0 -33 -9.5 -58.5t-27.5 -53.5h-137l-183 -914q-25 -121 -62.5 -195.5t-90.5 -121.5q-63 -57 -143 -82 t-175 -25q-129 0 -218 36t-140 71z" />
<glyph unicode="K" horiz-adv-x="1404" d="M66 68q0 33 9 58.5t27 53.5h131l228 1133h-127q-6 35 -7 47t-1 20q0 33 9 58.5t27 54.5h508q6 -33 7.5 -45t1.5 -23q0 -33 -9.5 -58.5t-27.5 -53.5h-115l-98 -484l553 484h-162q-6 35 -7 47t-1 20q0 33 9 58.5t28 54.5h565q6 -33 7 -45t1 -23q0 -33 -9 -58.5t-28 -53.5 h-117l-489 -428l281 -705h143q6 -35 7 -47t1 -20q0 -33 -9 -58.5t-28 -54.5h-579q-6 33 -7.5 45t-1.5 23q0 33 9.5 58.5t27.5 53.5h150l-197 527l-207 -181l-69 -346h127q6 -35 7 -47t1 -20q0 -33 -9.5 -58.5t-27.5 -54.5h-524q-6 33 -7 45.5t-1 22.5z" />
<glyph unicode="L" horiz-adv-x="1230" d="M66 68q0 33 9 58.5t27 53.5h131l228 1133h-127q-6 35 -7 47t-1 20q0 33 9 58.5t27 54.5h566q6 -33 7 -45t1 -23q0 -33 -9 -58.5t-28 -53.5h-172l-225 -1118h483l64 321q37 12 63.5 15.5t42.5 3.5q20 0 48 -5.5t63 -19.5l-101 -510h-1091q-6 33 -7 45.5t-1 22.5z" />
<glyph unicode="M" horiz-adv-x="1779" d="M66 68q0 33 9 58.5t27 53.5h131l228 1133h-127q-6 35 -7 47t-1 20q0 33 9 58.5t27 54.5h506l76 -1196l545 1196h512q6 -33 7 -45t1 -23q0 -33 -9 -58.5t-28 -53.5h-131l-227 -1133h127q6 -35 7 -47t1 -20q0 -33 -9 -58.5t-28 -54.5h-493q-6 33 -7.5 45t-1.5 23 q0 33 9.5 58.5t27.5 53.5h119l215 1075l-573 -1218h-242l-82 1218l-215 -1075h127q6 -35 7 -47t1 -20q0 -33 -9 -58.5t-28 -54.5h-493q-6 33 -7 45.5t-1 22.5z" />
<glyph unicode="N" horiz-adv-x="1480" d="M66 68q0 33 9 58.5t27 53.5h131l228 1133h-127q-6 35 -7 47t-1 20q0 33 9 58.5t27 54.5h404l358 -1102l183 922h-140q-6 35 -7 47t-1 20q0 33 9.5 58.5t27.5 54.5h514q6 -33 7 -45t1 -23q0 -33 -9 -58.5t-28 -53.5h-139l-262 -1331h-246l-375 1140l-190 -942h147 q6 -35 7.5 -47t1.5 -20q0 -33 -9.5 -58.5t-27.5 -54.5h-514q-6 33 -7 45.5t-1 22.5z" />
<glyph unicode="O" horiz-adv-x="1544" d="M238 602q0 106 22.5 216t66.5 213.5t111.5 193.5t155.5 158.5t197.5 107.5t240.5 39q141 0 242.5 -39t177.5 -117q80 -82 118 -200.5t38 -260.5q0 -166 -48.5 -335.5t-146.5 -306t-247.5 -222.5t-352.5 -86q-141 0 -237.5 39t-161.5 104q-49 49 -83 108.5t-54.5 124 t-29.5 131t-9 132.5zM522 586q0 -131 30 -209t75 -121q43 -41 95 -59.5t105 -18.5q70 0 141.5 32t135.5 95q94 94 156.5 253t62.5 357q0 209 -94 310q-37 39 -89.5 64.5t-123.5 25.5q-80 0 -154 -35t-135 -100q-47 -49 -84 -115t-64.5 -142.5t-42 -162.5t-14.5 -174z" />
<glyph unicode="P" horiz-adv-x="1239" d="M66 68q0 33 9 58.5t27 53.5h131l228 1133h-127q-6 35 -7 47t-1 20q0 33 9 58.5t27 54.5h642q121 0 198.5 -30.5t123.5 -82t63.5 -119t17.5 -141.5q0 -104 -35 -195t-103.5 -159t-169 -105.5t-229.5 -37.5h-292l-89 -443h158q6 -35 7 -47t1 -20q0 -33 -9 -58.5t-28 -54.5 h-544q-6 33 -7 45.5t-1 22.5zM616 817h232q135 0 212 79t77 222q0 84 -46.5 132t-150.5 48h-225z" />
<glyph unicode="Q" horiz-adv-x="1544" d="M238 602q0 106 22.5 216t66.5 213.5t111.5 193.5t155.5 158.5t197.5 107.5t240.5 39q141 0 242.5 -39t177.5 -117q80 -82 118 -200.5t38 -260.5q0 -145 -39 -299.5t-120 -287.5t-206 -229.5t-297 -123.5q23 -27 59.5 -42t94.5 -15q61 0 146 14.5t194 67.5l-54 -231 q-37 -12 -69.5 -21.5t-67.5 -14.5t-77 -7.5t-97 -2.5q-137 0 -255 63.5t-183 199.5q-72 18 -126 50t-97 72q-49 49 -83 108.5t-54.5 124t-29.5 131t-9 132.5zM522 586q0 -131 30 -209t75 -121q43 -41 95 -59.5t105 -18.5q70 0 141.5 32t135.5 95q94 94 156.5 253t62.5 357 q0 209 -94 310q-37 39 -89.5 64.5t-123.5 25.5q-80 0 -154 -35t-135 -100q-47 -49 -84 -115t-64.5 -142.5t-42 -162.5t-14.5 -174z" />
<glyph unicode="R" horiz-adv-x="1363" d="M66 68q0 33 9 58.5t27 53.5h131l228 1133h-127q-6 35 -7 47t-1 20q0 33 9 58.5t27 54.5h623q133 0 218 -36t134 -91t68.5 -121.5t19.5 -130.5q0 -178 -95 -300t-255 -171l144 -463h137q6 -35 7 -47t1 -20q0 -33 -9 -58.5t-28 -54.5h-344l-172 635h-229l-93 -455h138 q6 -35 7 -47t1 -20q0 -33 -9.5 -58.5t-27.5 -54.5h-524q-6 33 -7 45.5t-1 22.5zM621 829h239q63 0 117.5 19.5t94.5 54.5t61.5 84t21.5 109q0 43 -9 79.5t-31.5 64.5t-63.5 43t-105 15h-231z" />
<glyph unicode="S" horiz-adv-x="1275" d="M94 6l113 559q29 14 55.5 16.5t42.5 2.5q18 0 46 -4.5t63 -20.5q-2 -10 -9.5 -53t-7.5 -117q0 -37 20.5 -76t62.5 -71.5t103.5 -53t145.5 -20.5q74 0 128 20.5t90 55.5t53.5 80t17.5 94q0 68 -38 116t-132 80l-203 70q-164 55 -239.5 144.5t-75.5 244.5q0 82 31.5 164 t95 146.5t161 105.5t230.5 41q115 0 205 -32t161 -105l19 96q33 12 54.5 15t42 3t49 -3t57.5 -15l-109 -541q-29 -14 -55.5 -16t-42.5 -2q-18 0 -45 4t-64 20q4 16 11.5 61.5t7.5 119.5q0 80 -71 140t-212 60q-129 0 -197.5 -69.5t-68.5 -169.5q0 -59 34.5 -98.5 t133.5 -73.5l219 -76q74 -25 133 -58.5t100 -80.5t62.5 -112t21.5 -153q0 -100 -36.5 -188t-106.5 -152.5t-170 -101.5t-225 -37q-61 0 -125 9.5t-121 29t-106.5 51t-84.5 74.5l-22 -127q-33 -10 -56.5 -13t-39.5 -3q-20 0 -49 4t-58 16z" />
<glyph unicode="T" horiz-adv-x="1308" d="M262 1053l88 440h1204l-90 -449q-37 -10 -60.5 -13t-39.5 -3q-25 0 -47.5 5t-59.5 20l50 245h-258l-226 -1118h162q6 -35 7 -47t1 -20q0 -33 -9 -58.5t-28 -54.5h-575q-6 33 -7 45t-1 23q0 33 9 58.5t28 53.5h147l225 1118h-262l-51 -254q-37 -10 -60.5 -13t-39.5 -3 q-25 0 -47.5 5.5t-59.5 19.5z" />
<glyph unicode="U" horiz-adv-x="1478" d="M291 375q0 49 4 86t8 63l156 789h-127q-6 35 -7 47t-1 20q0 33 9 58.5t27 54.5h525q6 -33 7 -45t1 -23q0 -33 -9.5 -58.5t-27.5 -53.5h-131l-150 -758q-10 -51 -15 -88t-5 -66q0 -61 19.5 -103t54.5 -66.5t81 -36t99 -11.5q72 0 127 21.5t94 60.5q41 43 68.5 107.5 t46.5 163.5l151 776h-127q-6 35 -7 47t-1 20q0 33 9.5 58.5t27.5 54.5h512q6 -33 7 -45t1 -23q0 -33 -9 -58.5t-28 -53.5h-133l-155 -797q-29 -145 -73 -236.5t-110 -156.5q-78 -78 -183 -119t-245 -41q-121 0 -213 32t-153.5 87t-93 130t-31.5 163z" />
<glyph unicode="V" horiz-adv-x="1409" d="M299 1380q0 33 9 58.5t28 54.5h530q6 -33 7 -45t1 -23q0 -33 -9 -58.5t-27 -53.5h-162l96 -1045l512 1045h-141q-6 35 -7 47t-1 20q0 33 9 58.5t27 54.5h508q6 -33 7.5 -45t1.5 -23q0 -33 -9.5 -58.5t-27.5 -53.5h-119l-688 -1331h-281l-139 1331h-117q-6 35 -7 47t-1 20 z" />
<glyph unicode="W" horiz-adv-x="1986" d="M299 1380q0 33 9 58.5t28 54.5h530q6 -33 7 -45t1 -23q0 -33 -9 -58.5t-27 -53.5h-152l23 -951l469 1131h280l-8 -1137l428 957h-137q-6 35 -7 47t-1 20q0 33 9 58.5t27 54.5h488q6 -33 7 -45t1 -23q0 -33 -9 -58.5t-28 -53.5h-117l-598 -1331h-280l8 1167l-483 -1167 h-281l-51 1331h-119q-6 35 -7 47t-1 20z" />
<glyph unicode="X" horiz-adv-x="1456" d="M43 68q0 33 9 58.5t28 53.5h106l549 576l-282 557h-109q-6 35 -7 47t-1 20q0 33 9 58.5t28 54.5h540q6 -33 7.5 -45t1.5 -23q0 -33 -9.5 -58.5t-27.5 -53.5h-142l183 -357l340 357h-146q-6 35 -7 47t-1 20q0 33 9 58.5t28 54.5h537q6 -33 7 -45t1 -23q0 -33 -9.5 -58.5 t-27.5 -53.5h-115l-520 -547l299 -586h119q6 -35 7 -47t1 -20q0 -33 -9 -58.5t-28 -54.5h-551q-6 33 -7 45t-1 23q0 33 9 58.5t28 53.5h137l-195 385l-368 -385h160q6 -35 7 -47t1 -20q0 -33 -9.5 -58.5t-27.5 -54.5h-543q-6 33 -7 45.5t-1 22.5z" />
<glyph unicode="Y" horiz-adv-x="1425" d="M299 1380q0 33 9 58.5t28 54.5h520q6 -33 7 -45t1 -23q0 -33 -9 -58.5t-28 -53.5h-143l199 -498l417 498h-149q-6 35 -7 47t-1 20q0 33 9 58.5t28 54.5h514q6 -33 7 -45t1 -23q0 -33 -9.5 -58.5t-27.5 -53.5h-94l-604 -725l-82 -408h143q6 -35 7 -47t1 -20 q0 -33 -9 -58.5t-28 -54.5h-540q-6 33 -7 45t-1 23q0 33 9 58.5t27 53.5h131l87 426l-293 707h-105q-6 35 -7 47t-1 20z" />
<glyph unicode="Z" horiz-adv-x="1243" d="M55 0l41 207l1006 1091h-531l-57 -276q-37 -12 -63.5 -15t-42.5 -3q-20 0 -48 5t-63 19l94 465h1061l-41 -207l-1005 -1091h600l57 276q37 12 63.5 15t42.5 3q20 0 48 -5t63 -19l-94 -465h-1131z" />
<glyph unicode="[" horiz-adv-x="641" d="M55 -344l381 1896h461l-33 -163h-213l-313 -1569h213l-37 -164h-459z" />
<glyph unicode="\" horiz-adv-x="733" d="M315 1552h213l193 -1589h-213z" />
<glyph unicode="]" horiz-adv-x="641" d="M-14 -344l32 164h213l314 1569h-213l37 163h458l-381 -1896h-460z" />
<glyph unicode="^" horiz-adv-x="1200" d="M139 524l656 842h198l277 -842h-258l-176 537l-416 -537h-281z" />
<glyph unicode="_" horiz-adv-x="1024" d="M0 -121h1024v-221h-1024v221z" />
<glyph unicode="`" horiz-adv-x="778" d="M403 1456h289l193 -278h-203z" />
<glyph unicode="a" horiz-adv-x="1230" d="M170 373q0 176 57.5 319.5t163.5 249.5q78 78 172 114t182 36q84 0 160 -32t115 -110l65 113h164l-182 -895h117q8 -31 9 -42t1 -22q0 -66 -43 -104h-342l37 193q-22 -37 -43 -67t-58 -63q-41 -37 -106.5 -64.5t-142.5 -27.5q-66 0 -122.5 21.5t-94.5 60.5 q-57 57 -83 137.5t-26 182.5zM440 397q0 -117 43 -161q18 -20 42 -31.5t59 -11.5q43 0 86 21.5t88 70.5q70 78 116 195.5t46 250.5q0 49 -12.5 82t-33.5 53q-39 39 -104 39q-68 0 -128 -45t-105 -117.5t-71 -164t-26 -181.5z" />
<glyph unicode="b" horiz-adv-x="1214" d="M176 0l281 1384h-119q-6 31 -7 42.5t-1 21.5q0 66 41 104h372l-122 -610q37 49 76.5 78t79.5 45t78 21.5t73 5.5q66 0 122 -21.5t95 -60.5q57 -57 82.5 -137t25.5 -183q0 -176 -55 -320.5t-162 -250.5q-78 -78 -172 -113t-182 -35q-96 0 -166 40t-110 100l-66 -111h-164z M502 360q0 -100 49 -149t108 -49q66 0 125.5 45t103.5 116.5t69.5 161.5t25.5 181q0 115 -43 161q-18 20 -40.5 30.5t-57.5 10.5q-43 0 -89 -19.5t-91 -68.5q-35 -39 -64 -88t-50.5 -104.5t-33.5 -114t-12 -113.5z" />
<glyph unicode="c" horiz-adv-x="1060" d="M172 434q0 92 30.5 207t97.5 215t173.5 168t257.5 68q78 0 144.5 -28t99.5 -69l12 64q31 12 47.5 14t32.5 2t43 -4t51 -16l-94 -447q-29 -10 -49.5 -13t-36.5 -3t-35.5 3t-58.5 15l12 74q6 37 6 59q0 20 -3 49t-18.5 54.5t-47 43t-88.5 17.5q-53 0 -98.5 -21.5 t-88.5 -68.5q-55 -61 -92 -159.5t-37 -221.5q0 -74 18.5 -123t51.5 -79.5t78 -44t100 -13.5q102 0 187 48t177 130l-53 -270q-102 -68 -189 -89.5t-179 -21.5q-117 0 -202 34t-140.5 95.5t-82 145.5t-26.5 186z" />
<glyph unicode="d" horiz-adv-x="1222" d="M170 373q0 176 57.5 319.5t163.5 249.5q78 78 172 114t182 36q66 0 130.5 -24t103.5 -75l78 391h-117q-6 31 -7 42.5t-1 21.5q0 66 41 104h373l-279 -1384h117q8 -31 9 -42t1 -22q0 -66 -43 -104h-342l37 193q-22 -37 -43 -67t-58 -63q-41 -37 -106.5 -64.5t-142.5 -27.5 q-66 0 -122.5 21.5t-94.5 60.5q-57 57 -83 137.5t-26 182.5zM440 397q0 -117 43 -161q18 -20 42 -31.5t59 -11.5q43 0 86 21.5t88 70.5q70 78 116 195.5t46 250.5q0 49 -12.5 82t-33.5 53q-39 39 -104 39q-68 0 -128 -45t-105 -117.5t-71 -164t-26 -181.5z" />
<glyph unicode="e" horiz-adv-x="1036" d="M174 430q0 51 10.5 114.5t35 130t63.5 132t94 123.5q70 72 167 117t232 45q86 0 151.5 -21.5t108.5 -59.5t64.5 -89.5t21.5 -110.5q0 -84 -44 -157.5t-131 -129t-217 -88.5t-300 -33q4 -129 66.5 -177t162.5 -48q45 0 87 8.5t85 26.5t90.5 47t100.5 70l-35 -252 q-86 -49 -182 -78t-207 -29q-98 0 -174 29t-129 80q-66 63 -93.5 151t-27.5 199zM451 588q117 0 197.5 19.5t131.5 50t74 68.5t23 75q0 49 -27 78q-16 16 -41 26t-61 10q-47 0 -93.5 -24.5t-85.5 -67.5t-69.5 -103t-48.5 -132z" />
<glyph unicode="f" horiz-adv-x="692" d="M-96 -322l47 185q41 -18 75.5 -24.5t63.5 -6.5q47 0 86 37t57 141l150 885h-158q-6 31 -7 42t-1 21q0 66 41 105h154l16 94q14 76 42 160t93 149q45 47 111.5 76t165.5 29q66 0 120 -15.5t99 -37.5l-47 -193q-31 16 -68 29.5t-76 13.5q-45 0 -71.5 -13.5t-42.5 -29.5 q-35 -35 -49.5 -82t-20.5 -82l-16 -98h186q6 -31 7 -42t1 -22q0 -66 -41 -104h-182l-154 -895q-18 -109 -55 -179.5t-87 -112.5t-111.5 -59.5t-129.5 -17.5q-66 0 -111.5 13.5t-86.5 33.5z" />
<glyph unicode="g" horiz-adv-x="1206" d="M104 -260l52 197q76 -53 152.5 -83t185.5 -30q125 0 197.5 59.5t103.5 190.5l22 96q-25 -33 -57 -66q-51 -49 -113.5 -76.5t-140.5 -27.5q-66 0 -122 21.5t-95 60.5q-57 57 -83 137t-26 182q0 158 54.5 296.5t160.5 244.5q78 78 172.5 114t182.5 36q84 0 159.5 -32 t114.5 -110l66 113h163l-198 -979q-49 -246 -183.5 -349.5t-357.5 -103.5q-133 0 -234.5 34t-175.5 75zM451 426q0 -117 43 -162q18 -20 41.5 -31.5t58.5 -11.5q88 0 186 101q59 63 101.5 169.5t42.5 239.5q0 49 -12.5 82t-32.5 53q-39 39 -105 39q-68 0 -127 -44 t-103 -113.5t-68.5 -154.5t-24.5 -167z" />
<glyph unicode="h" horiz-adv-x="1239" d="M176 0l279 1384h-117q-6 31 -7 42.5t-1 21.5q0 66 41 104h372l-129 -639q25 31 59 63t74.5 57.5t89 42t103.5 16.5q125 0 197.5 -60.5t72.5 -165.5q0 -41 -4 -88t-20 -116l-113 -494h117q8 -31 9 -42t1 -22q0 -66 -43 -104h-377l154 672q18 86 18 131q0 23 -7 36t-17 23 q-23 25 -74 25q-43 0 -93 -34t-97.5 -97.5t-88 -156.5t-65.5 -210l-80 -389h-254z" />
<glyph unicode="i" horiz-adv-x="653" d="M201 0l180 895h-117q-6 31 -7 42t-1 21q0 66 41 105h373l-181 -895h117q8 -31 9 -42t1 -22q0 -66 -43 -104h-372zM422 1364q0 68 43 119t110.5 51t105.5 -47t38 -107q0 -31 -10.5 -61.5t-30 -54t-47 -39t-64.5 -15.5q-68 0 -106.5 46.5t-38.5 107.5z" />
<glyph unicode="j" horiz-adv-x="610" d="M-117 -334l39 195q39 -14 71 -19.5t60 -5.5q55 0 90 31q16 16 29.5 44t24.5 79l182 905h-119q-6 31 -7 42t-1 21q0 66 41 105h373l-215 -1077q-12 -55 -24.5 -96.5t-28 -72t-34 -54t-38.5 -44.5q-49 -47 -111.5 -67.5t-134.5 -20.5q-55 0 -103.5 9.5t-93.5 25.5z M418 1364q0 68 43 119t110.5 51t105.5 -47t38 -107q0 -31 -10.5 -61.5t-30 -54t-47 -39t-64.5 -15.5q-68 0 -106.5 46.5t-38.5 107.5z" />
<glyph unicode="k" horiz-adv-x="1140" d="M176 0l279 1384h-117q-6 31 -7 42.5t-1 21.5q0 66 41 104h372l-182 -901l305 244h-86q-6 31 -7 42t-1 21q0 66 41 105h487q8 -31 9.5 -42t1.5 -22q0 -66 -43 -104h-113l-315 -250l182 -477h139q8 -31 9 -42t1 -22q0 -66 -43 -104h-317l-170 485l-135 -106l-76 -379h-254z " />
<glyph unicode="l" horiz-adv-x="645" d="M188 0l279 1384h-117q-6 31 -7 42.5t-1 21.5q0 66 41 104h373l-279 -1384h115q8 -31 9 -42t1 -22q0 -66 -43 -104h-371z" />
<glyph unicode="m" horiz-adv-x="1810" d="M190 0l181 895h-117q-6 31 -7 42t-1 21q0 66 41 105h344l-43 -213q18 35 50 77t76 78.5t100 61.5t124 25q123 0 184.5 -58.5t67.5 -138.5q20 31 53 64.5t76 63.5t95 49.5t114 19.5q125 0 191.5 -63.5t66.5 -162.5q0 -41 -6 -88t-23 -116l-112 -494h116q8 -31 9.5 -42 t1.5 -22q0 -66 -43 -104h-377l153 672q18 86 19 131q0 37 -17 57q-18 25 -65 25q-37 0 -85 -34t-94 -97.5t-86 -155.5t-65 -209l-80 -389h-254l135 672q10 43 15.5 74.5t5.5 56.5q0 37 -16 57q-18 25 -66 25q-37 0 -84 -34t-93 -97.5t-86 -155.5t-65 -209l-80 -389h-254z " />
<glyph unicode="n" horiz-adv-x="1249" d="M188 0l181 895h-117q-6 31 -7 42t-1 21q0 66 41 105h344l-43 -213q18 35 52 77t81 78.5t106.5 61.5t126.5 25q125 0 198 -60.5t73 -165.5q0 -41 -4.5 -88t-20.5 -116l-113 -494h117q8 -31 9 -42t1 -22q0 -66 -43 -104h-376l153 672q18 86 19 131q0 23 -7.5 36t-17.5 23 q-23 25 -74 25q-43 0 -93 -34t-97 -97.5t-88 -156.5t-66 -210l-80 -389h-254z" />
<glyph unicode="o" horiz-adv-x="1165" d="M174 420q0 102 35 220t106.5 218t184 167t266.5 67q111 0 190.5 -35t130.5 -86q70 -70 92.5 -153t22.5 -159q0 -72 -13 -145.5t-40 -143t-67 -133t-91 -114.5q-72 -72 -165 -112t-199 -40q-121 0 -197 31t-135 88q-59 59 -90 142.5t-31 187.5zM434 410q0 -113 45 -181.5 t150 -68.5q86 0 145.5 57t96 137t54 167t17.5 147q0 33 -7 73.5t-26.5 76.5t-57.5 60.5t-99 24.5q-63 0 -111.5 -28.5t-84.5 -74.5t-58.5 -102.5t-37 -111t-20.5 -102t-6 -74.5z" />
<glyph unicode="p" horiz-adv-x="1214" d="M-16 -281q0 66 41 105h116l217 1071h-116q-8 31 -9.5 42t-1.5 21q0 63 43 105h340l-32 -176q66 102 146.5 153.5t199.5 51.5q66 0 122 -21.5t95 -60.5q57 -57 82.5 -137t25.5 -183q0 -176 -55 -320.5t-162 -250.5q-78 -78 -167 -113t-177 -35q-76 0 -142.5 28t-103.5 81 l-51 -256h137q8 -31 9.5 -42t1.5 -22q0 -66 -43 -104h-508q-6 31 -7 42t-1 21zM502 360q0 -100 45 -147t112.5 -47t127 44t103.5 114.5t68.5 160.5t24.5 181q0 115 -43 161q-18 20 -40.5 30.5t-57.5 10.5q-43 0 -89 -19.5t-91 -68.5q-35 -39 -64 -88t-50.5 -104.5 t-33.5 -114t-12 -113.5z" />
<glyph unicode="q" horiz-adv-x="1200" d="M170 373q0 176 57.5 319.5t163.5 249.5q78 78 172 114t182 36q84 0 160 -32t115 -110l65 113h164l-250 -1239h129q8 -31 9.5 -42t1.5 -22q0 -66 -43 -104h-521q-6 31 -7 42t-1 21q0 66 41 105h137l64 309q-12 -16 -26.5 -33.5t-37.5 -36.5q-41 -37 -106.5 -64.5 t-142.5 -27.5q-66 0 -122.5 21.5t-94.5 60.5q-57 57 -83 137.5t-26 182.5zM440 397q0 -117 43 -161q18 -20 42 -31.5t59 -11.5q43 0 86 21.5t88 70.5q70 78 116 195.5t46 250.5q0 49 -12.5 82t-33.5 53q-39 39 -104 39q-68 0 -128 -45t-105 -117.5t-71 -164t-26 -181.5z" />
<glyph unicode="r" horiz-adv-x="854" d="M190 0l181 895h-117q-6 31 -7 42t-1 21q0 66 41 105h344l-53 -264q23 55 52 98t60 74q47 47 100.5 69.5t106.5 22.5q47 0 80 -8t67 -29l-83 -215q-29 12 -51.5 16t-55.5 4q-41 0 -86 -24.5t-86 -71.5q-23 -27 -47.5 -70.5t-48 -97t-43 -114t-31.5 -117.5l-68 -336h-254z " />
<glyph unicode="s" horiz-adv-x="1042" d="M109 12l86 410q33 10 49 13t32.5 3t39 -3t51.5 -15q-6 -37 -10.5 -70t-4.5 -55q0 -57 60.5 -101t171.5 -44q94 0 141 37.5t47 103.5q0 41 -29.5 70.5t-105.5 52.5l-137 43q-53 16 -98.5 38.5t-79 54.5t-52 74t-18.5 99q0 82 30.5 145.5t84 105.5t122 63.5t146.5 21.5 q88 0 171 -24.5t124 -78.5l14 76q29 12 46.5 14.5t33.5 2.5t38.5 -4.5t47.5 -16.5l-74 -352q-29 -10 -45 -13.5t-32.5 -3.5t-38 3.5t-56.5 15.5q4 23 6 43t2 43q0 51 -48 90t-148 39q-94 0 -137 -44t-43 -99q0 -20 11 -36t28.5 -27t38.5 -18l40 -14l125 -37 q82 -25 133.5 -52t85.5 -62q70 -70 70 -176q0 -84 -30.5 -150.5t-84 -113t-127 -70t-159.5 -23.5q-96 0 -187.5 27t-150.5 92l-15 -82q-23 -12 -41 -14t-34.5 -2t-38.5 4t-51 16z" />
<glyph unicode="t" horiz-adv-x="739" d="M225 958q0 66 41 105h135l48 227l280 129l-74 -356h222q6 -31 7 -42t1 -22q0 -66 -41 -104h-223l-105 -510q-10 -47 -15 -75.5t-5 -55.5q0 -25 16 -46.5t61 -21.5q37 0 73 8.5t102 30.5l-31 -196q-43 -18 -95.5 -30.5t-134.5 -12.5q-123 0 -190 67q-27 29 -42 67t-15 77 q0 37 3 68.5t9 66.5l115 563h-134q-6 31 -7 42t-1 21z" />
<glyph unicode="u" horiz-adv-x="1249" d="M219 197q0 41 4 88t21 116l112 494h-116q-8 31 -9.5 42t-1.5 21q0 63 43 105h377l-153 -672q-18 -86 -19 -131q0 -23 7.5 -36t17.5 -23q10 -12 30.5 -18.5t42.5 -6.5q43 0 93.5 34t97.5 97.5t88 156.5t66 210l79 389h254l-180 -895h117q6 -31 7 -42t1 -22q0 -66 -41 -104 h-344l43 213q-18 -35 -52 -77t-81 -79t-106.5 -61.5t-127.5 -24.5q-125 0 -197.5 61t-72.5 165z" />
<glyph unicode="v" horiz-adv-x="1140" d="M223 199q0 41 5 87t22 115l112 494h-116q-8 31 -9 42t-1 21q0 63 43 105h376l-153 -672q-18 -86 -19 -131q0 -23 7.5 -36t17.5 -23q10 -12 30.5 -18.5t43.5 -6.5q80 0 146.5 56.5t115.5 142.5t75.5 188.5t26.5 192.5q0 35 -2 66.5t-10 72.5h-119q-8 31 -9 42t-1 21 q0 63 43 105h303q53 -104 53 -236q0 -172 -53 -327.5t-146.5 -272t-220.5 -186.5t-274 -70q-125 0 -206 59.5t-81 168.5z" />
<glyph unicode="w" horiz-adv-x="1703" d="M223 209q0 41 3 75.5t14 75.5l120 535h-116q-8 31 -9.5 42t-1.5 21q0 63 43 105h377l-153 -672q-10 -43 -13.5 -73.5t-3.5 -55.5q0 -37 22.5 -63.5t78.5 -26.5q90 0 168.5 105.5t130.5 353.5l88 432h254l-142 -700q-4 -25 -6 -46.5t-2 -42.5v-12q0 -47 25.5 -66.5 t73.5 -19.5q80 0 141 55.5t104 141.5t65.5 188.5t22.5 194.5q0 35 -2 66.5t-10 72.5h-119q-8 31 -9 42t-1 21q0 63 43 105h303q53 -104 53 -236q0 -172 -48 -327.5t-134 -272t-202.5 -186.5t-254.5 -70q-115 0 -184.5 46t-87.5 145q-20 -31 -51 -65t-74 -61.5t-98.5 -46 t-125 -18.5t-122.5 19.5t-88 52.5t-53.5 76t-18.5 90z" />
<glyph unicode="x" horiz-adv-x="1198" d="M59 63q0 66 41 105h86l396 377l-160 350h-141q-6 31 -7.5 42t-1.5 21q0 66 41 105h291l158 -346l215 196h-111q-8 23 -9 35.5t-1 20.5q0 25 10.5 50t30.5 44h424q8 -31 9 -42t1 -22q0 -66 -43 -104h-76l-370 -354l168 -373h139q8 -31 9 -42t1 -22q0 -66 -43 -104h-289 l-165 369l-242 -219h129q8 -23 9 -35.5t1 -20.5q0 -25 -10 -50.5t-31 -43.5h-450q-6 31 -7.5 42t-1.5 21z" />
<glyph unicode="y" horiz-adv-x="1064" d="M-2 -315l55 198q49 -27 91 -35t81 -8q94 0 195 94q47 43 96 109l-61 222l-67 223l-66 213l-64 194h-113q-6 31 -7 42t-1 21q0 66 41 105h283q25 -61 55 -154l65 -196l65 -210l56 -194q39 66 75 134.5t62.5 138t43 135t16.5 125.5q0 14 -1 27.5t-3 25.5h-150q-6 31 -7 42 t-1 21q0 66 41 105h322q25 -59 30 -100t5 -74q0 -115 -44 -249t-113 -268t-155 -260t-168 -225q-51 -61 -101 -108t-105.5 -80t-117 -50.5t-132.5 -17.5q-51 0 -108.5 13.5t-92.5 40.5z" />
<glyph unicode="z" horiz-adv-x="980" d="M43 0l41 197l696 680h-338l-32 -154q-33 -10 -53.5 -12t-37 -2t-39 3t-59.5 15l68 336h839l-38 -197l-697 -680h381l39 197q35 10 55.5 13t37 3t40 -4t60.5 -16l-80 -379h-883z" />
<glyph unicode="{" horiz-adv-x="765" d="M193 524l36 164q70 0 124.5 48t72.5 138l88 420q27 123 107.5 190.5t224.5 67.5h147l-32 -163h-68q-70 0 -96.5 -29t-40.5 -94l-84 -400q-25 -117 -91.5 -181t-152.5 -93q57 -20 97 -65.5t40 -108.5q0 -37 -7 -91.5t-19 -107.5l-56 -256q-6 -29 -10 -50.5t-4 -41.5 q0 -23 20.5 -37t67.5 -14h74l-37 -164h-100q-133 0 -201 56.5t-68 140.5q0 41 8.5 89l16.5 89l53 254q10 41 14.5 69.5t4.5 67.5q0 35 -29.5 63.5t-99.5 38.5z" />
<glyph unicode="|" horiz-adv-x="585" d="M178 -37l322 1589h213l-322 -1589h-213z" />
<glyph unicode="}" horiz-adv-x="765" d="M16 -344l33 164h68q70 0 96.5 28.5t40.5 94.5l84 399q25 117 91.5 181.5t152.5 92.5q-57 20 -97.5 65.5t-40.5 109.5q0 37 7.5 91t19.5 107l55 256l10.5 50.5t4.5 41.5q0 23 -20.5 37.5t-67.5 14.5h-74l37 163h100q133 0 200.5 -56t67.5 -140q0 -41 -8 -89t-16 -89 l-53 -254q-10 -41 -14.5 -70t-4.5 -68q0 -35 30 -63.5t99 -38.5l-37 -164q-70 0 -124 -48t-72 -138l-88 -420q-27 -123 -108 -190.5t-224 -67.5h-148z" />
<glyph unicode="~" horiz-adv-x="1380" d="M100 319q66 193 176.5 284t258.5 91q119 0 220 -37l208 -73q29 -10 58.5 -16.5t65.5 -6.5q59 0 102.5 34t84.5 126h215q-70 -195 -180.5 -285t-245.5 -90q-59 0 -115.5 10.5t-110 26.5t-106.5 36l-106 38q-29 10 -58.5 16t-66.5 6q-57 0 -100.5 -33.5t-86.5 -126.5h-213z " />
<glyph unicode="&#xa1;" horiz-adv-x="626" d="M57 -344l279 991h219l-186 -991h-312zM346 920q0 33 12.5 63.5t34 55t52 39t67.5 14.5q25 0 51.5 -10.5t48 -30t36 -48t14.5 -65.5t-13.5 -69.5t-36 -56.5t-52.5 -38t-62 -14q-66 0 -109 44t-43 116z" />
<glyph unicode="&#xa2;" d="M227 584q0 92 30 204.5t94.5 212t169 168t251.5 72.5l31 158h139l-35 -176q94 -27 150 -84l14 69q29 12 44 14.5t31.5 2.5t41 -4t49.5 -17l-94 -446q-29 -10 -47.5 -13.5t-35 -3.5t-35.5 3.5t-54 15.5l12 74q6 37 6 59q0 16 -5 38.5t-17.5 45t-35 41t-59.5 29.5 l-145 -721q104 0 202.5 48t190.5 130l-53 -271q-98 -66 -193.5 -88t-187.5 -22l-31 -156h-139l33 168q-166 35 -244 156t-78 293zM479 586q0 -96 31 -151.5t84 -82.5l137 692q-72 -18 -117 -69q-59 -63 -97 -164.5t-38 -224.5z" />
<glyph unicode="&#xa3;" d="M82 0l37 193q66 39 124 86t102 100t69.5 116.5t25.5 137.5h-215q-6 31 -7 42t-1 21q0 66 41 105h170l-4 73.5t-2 86.5q0 96 32.5 176t92 138t139.5 91t176 33q70 0 126 -7.5t105.5 -22.5t93.5 -36.5t91 -50.5l-53 -205q-78 49 -148.5 83t-167.5 34q-100 0 -165.5 -63.5 t-65.5 -182.5q0 -43 2 -78.5t6 -68.5h346q6 -31 7 -42t1 -22q0 -66 -41 -104h-299v-17q0 -117 -70.5 -225t-187.5 -186h432l46 227q35 12 59.5 15.5t40.5 3.5q20 0 47 -5.5t59 -19.5l-84 -426h-960z" />
<glyph unicode="&#xa4;" horiz-adv-x="1206" d="M203 1067l149 150l111 -109q59 41 129 61.5t141.5 20.5t141 -20.5t129.5 -61.5l110 109l150 -150l-109 -104q41 -59 60.5 -132t19.5 -147t-19.5 -146.5t-60.5 -134.5l105 -110l-144 -143l-106 112q-59 -45 -132 -66.5t-144.5 -21.5t-144.5 21.5t-132 66.5l-107 -112 l-143 143l104 110q-41 61 -60.5 134t-19.5 147t19.5 146.5t60.5 132.5zM438 684q0 -63 22.5 -118.5t62.5 -97.5t94.5 -66.5t116 -24.5t114.5 24.5t93 66.5t64 97q24 56 23 128q0 40 -16 88q-18 54 -57.5 100.5t-95.5 77.5q-53 30 -117 30h-9q-61 0 -129 -31 q-33 -16 -62.5 -43.5t-53 -64.5t-37 -80t-13.5 -86z" />
<glyph unicode="&#xa5;" d="M147 319l31 152h326l26 129h-325l28 152h226l-142 434h-104q-6 33 -7 45t-1 22q0 33 9 58.5t28 54.5h475q6 -29 7 -41t1 -20q0 -29 -9 -52.5t-26 -50.5h-131l127 -457l342 457h-137q-6 31 -7 42t-1 20q0 29 9 53t26 49h468q6 -35 7.5 -47t1.5 -21q0 -33 -9.5 -58.5 t-27.5 -53.5h-96l-336 -434h213l-29 -152h-336l-26 -129h335l-30 -152h-334l-29 -139h129q6 -35 7 -47t1 -20q0 -33 -9 -58.5t-27 -54.5h-492q-6 33 -7 45t-1 23q0 33 9 58.5t28 53.5h118l29 139h-328z" />
<glyph unicode="&#xa6;" horiz-adv-x="585" d="M178 -37l107 531h213l-107 -531h-213zM393 1024l107 528h213l-107 -528h-213z" />
<glyph unicode="&#xa7;" horiz-adv-x="1234" d="M111 -215l45 233q37 -33 82 -66.5t96 -60t110.5 -43t124.5 -16.5q96 0 144.5 46t48.5 99q0 41 -18.5 79t-88.5 87l-264 187q-92 66 -132 142.5t-40 166.5q0 45 16.5 95t52.5 95t90 84t130 64q-70 82 -70 176q0 90 37 160.5t99.5 119t146.5 73t176 24.5q78 0 146.5 -16.5 t124 -39t97.5 -48t68 -46.5l-45 -213l-82 60q-41 29 -88 52.5t-102 36.5t-125 13q-92 0 -140.5 -48t-48.5 -114q0 -33 21.5 -62.5t81.5 -70.5l278 -186q74 -49 119 -123t45 -166q0 -121 -80 -215t-213 -145q41 -47 57.5 -93.5t16.5 -105.5q0 -94 -43 -163.5t-109.5 -115 t-147.5 -68t-157 -22.5q-86 0 -155.5 14.5t-126 37t-100 49t-78.5 53.5zM461 659q0 -51 18.5 -84.5t75.5 -74.5l231 -162l27 -19q100 43 145.5 99.5t45.5 103.5q0 41 -16.5 78t-76.5 78l-258 180q-90 -35 -141 -92.5t-51 -106.5z" />
<glyph unicode="&#xa8;" horiz-adv-x="778" d="M350 1317q0 55 38 97t91 42t92 -42t39 -97t-39 -97t-92 -42t-91 42t-38 97zM713 1317q0 55 37.5 97t91 42t92.5 -42t39 -97t-39 -97t-92.5 -42t-91 42t-37.5 97z" />
<glyph unicode="&#xa9;" horiz-adv-x="1759" d="M238 750q0 168 63.5 311t172 247.5t252.5 163t306 58.5q160 0 303.5 -58.5t252 -163t172 -247.5t63.5 -311q0 -170 -63.5 -314.5t-172 -249t-252 -164t-303.5 -59.5q-162 0 -306 59.5t-252.5 164t-172 249t-63.5 314.5zM440 750q0 -133 45 -245t125 -193t188.5 -127 t233.5 -46q123 0 230.5 46t187.5 127t125 192.5t45 245.5q0 129 -45 239.5t-125 191.5t-187.5 127t-230.5 46q-125 0 -233.5 -46t-188.5 -127t-125 -191.5t-45 -239.5zM600 737q0 98 27.5 187.5t81 156t132.5 105.5t181 39q53 0 106.5 -19.5t90.5 -58.5v49q41 14 67 14 q16 0 32.5 -3t31.5 -11v-358q-23 -10 -39.5 -12.5t-30.5 -2.5q-33 0 -50.5 6.5t-33.5 10.5v78q0 78 -41 122.5t-127 44.5q-61 0 -105 -27.5t-73 -74.5t-43 -109.5t-14 -130.5q0 -86 21.5 -146t55 -97t77.5 -54.5t91 -17.5q29 0 64 4t72.5 17.5t79.5 39t85 66.5v-188 q-41 -29 -121.5 -63t-187 -34t-187.5 35t-134.5 97.5t-81 147.5t-27.5 187z" />
<glyph unicode="&#xaa;" horiz-adv-x="892" d="M236 588l34 157h686l-34 -157h-686zM322 1077q0 72 25.5 152t75.5 147.5t122.5 111.5t167.5 44q43 0 73.5 -11.5t50 -26.5t30 -28.5t12.5 -19.5l39 65h120l-125 -557h78q4 -23 5 -32t1 -17q0 -20 -7 -38.5t-25 -41.5h-232l21 90q-10 -16 -29.5 -34.5t-47.5 -35 t-62.5 -27.5t-75.5 -11q-57 0 -98.5 21.5t-68 58.5t-38.5 86t-12 104zM500 1087q0 -57 19.5 -95t66.5 -38q43 0 84 31t72.5 79t51 106.5t19.5 115.5t-27.5 84t-64.5 27q-47 0 -87 -25.5t-69.5 -68.5t-47 -99t-17.5 -117z" />
<glyph unicode="&#xab;" horiz-adv-x="1191" d="M158 524l424 455h297l-449 -475l223 -447h-264zM616 524l424 455h297l-448 -475l223 -447h-264z" />
<glyph unicode="&#xac;" d="M172 756v202h1004v-546h-218v344h-786z" />
<glyph unicode="&#xad;" horiz-adv-x="747" d="M195 518q0 47 12 83t41 77h514q10 -47 11 -65.5t1 -28.5q0 -47 -12 -84t-41 -76h-514q-10 43 -11 62.5t-1 31.5z" />
<glyph unicode="&#xae;" horiz-adv-x="1759" d="M238 750q0 168 63.5 311t172 247.5t252.5 163t306 58.5q160 0 303.5 -58.5t252 -163t172 -247.5t63.5 -311q0 -170 -63.5 -314.5t-172 -249t-252 -164t-303.5 -59.5q-162 0 -306 59.5t-252.5 164t-172 249t-63.5 314.5zM440 750q0 -133 45 -245t125 -193t188.5 -127 t233.5 -46q123 0 230.5 46t187.5 127t125 192.5t45 245.5q0 129 -45 239.5t-125 191.5t-187.5 127t-230.5 46q-125 0 -233.5 -46t-188.5 -127t-125 -191.5t-45 -239.5zM676 356q0 14 2 28.5t10 43.5h64v641h-64q-8 29 -10 43t-2 29q0 10 2 24.5t10 42.5h399 q63 0 116.5 -20.5t91.5 -57t58.5 -86t20.5 -104.5q0 -66 -30.5 -138.5t-118.5 -115.5l116 -258h66q10 -29 11 -43t1 -29q0 -10 -2 -23.5t-12 -39.5h-195l-161 371h-134v-236h78q8 -29 10.5 -43t2.5 -29q0 -10 -2.5 -24.5t-12.5 -40.5h-303q-8 27 -10 41t-2 24zM915 809h140 q66 0 99.5 36t33.5 95q0 53 -33 88t-94 35h-146v-254z" />
<glyph unicode="&#xaf;" horiz-adv-x="778" d="M295 1241l33 174h669l-32 -174h-670z" />
<glyph unicode="&#xb0;" horiz-adv-x="860" d="M350 1173.5q0 67.5 24.5 126t67.5 101.5t101.5 67.5t126 24.5t126 -24.5t101.5 -67.5t67.5 -101.5t24.5 -126t-24.5 -126t-67.5 -101.5t-101.5 -67.5t-126 -24.5t-126 24.5t-101.5 67.5t-67.5 101.5t-24.5 126zM522 1173.5q0 -65.5 43 -110.5t104.5 -45t104.5 45 t43 110.5t-43 110.5t-104.5 45t-104.5 -45t-43 -110.5z" />
<glyph unicode="&#xb1;" d="M188 686v219h396v381h215v-385h393v-215h-393v-385h393v-219h-999v219h391v385h-396z" />
<glyph unicode="&#xb2;" horiz-adv-x="731" d="M152 662q20 92 64 152t100.5 106.5t123.5 84.5l138 80q33 20 64.5 50t31.5 65q0 27 -18.5 48.5t-72 21.5t-117 -29t-159.5 -108l33 174q53 33 116.5 62.5t149.5 29.5q123 0 189.5 -48t66.5 -141q0 -59 -26.5 -101t-67.5 -77t-92 -62l-104 -55q-52 -27 -98 -56.5 t-77 -65.5h224l18 79q23 10 43 12.5t31 2.5q16 0 38.5 -5t43.5 -16l-43 -204h-600z" />
<glyph unicode="&#xb3;" horiz-adv-x="731" d="M193 735l36 142q51 -43 105.5 -71t128.5 -28q61 0 107 30t46 83q0 41 -30.5 62.5t-77.5 21.5h-64q-10 16 -11 27.5t-1 23.5q0 23 7 38t26 36h57q68 0 104 26.5t36 65.5q0 29 -18.5 53.5t-82.5 24.5q-70 0 -130 -24.5t-120 -61.5l33 147q47 29 119 48.5t143 19.5 q100 0 169 -47t69 -127q0 -66 -37 -111t-105 -74q37 -16 69 -53t32 -96q0 -45 -19.5 -89t-59.5 -79t-100.5 -56.5t-142.5 -21.5q-102 0 -171.5 27.5t-116.5 62.5z" />
<glyph unicode="&#xb4;" horiz-adv-x="778" d="M393 1178l193 278h288l-278 -278h-203z" />
<glyph unicode="&#xb5;" horiz-adv-x="1327" d="M109 -344l249 1239h-116q-8 31 -9.5 42t-1.5 21q0 63 43 105h373l-141 -694q-4 -27 -8 -48.5t-4 -44.5q0 -57 25.5 -77.5t72.5 -20.5q39 0 87 34t94 97.5t85 155.5t64 209l79 389h254l-180 -895h117q6 -31 7 -42t1 -22q0 -66 -41 -104h-344l43 213q-27 -51 -60.5 -95 t-71.5 -77t-78 -51.5t-79 -18.5q-43 0 -68.5 11.5t-40 26t-20.5 26.5l-78 -379h-253z" />
<glyph unicode="&#xb6;" horiz-adv-x="1316" d="M283 1026q0 115 39.5 203t108.5 146.5t161 88t194 29.5h648l-373 -1862h-234l332 1657h-153l-332 -1657h-234l211 1051q-168 16 -268 109.5t-100 234.5z" />
<glyph unicode="&#xb7;" horiz-adv-x="612" d="M346 860q0 55 38 97t91 42t92 -42t39 -97t-39 -97t-92 -42t-91 42t-38 97z" />
<glyph unicode="&#xb8;" horiz-adv-x="778" d="M61 -406l45 117q35 -14 71 -22t77 -8q35 0 65.5 11t30.5 46q0 25 -16.5 36t-44.5 11q-12 0 -37 -5t-51 -20l-45 64l186 176h168l-115 -111h6q49 0 80 -12t48.5 -31.5t23.5 -44t6 -47.5q0 -47 -22.5 -84t-60.5 -62.5t-88 -39.5t-103 -14q-72 0 -124.5 10t-99.5 30z" />
<glyph unicode="&#xb9;" horiz-adv-x="731" d="M258 715q0 18 6 36.5t23 45.5h145l92 450h-137q-8 39 -8 56q0 20 7 37.5t28 39.5h321l-121 -583h125q8 -41 9 -56q0 -20 -7.5 -37.5t-25.5 -41.5h-451q-4 23 -5 33t-1 20z" />
<glyph unicode="&#xba;" horiz-adv-x="874" d="M238 588l30 157h686l-32 -157h-684zM348 1098q0 66 23.5 142.5t73 141t123 107.5t175.5 43q84 0 138.5 -28.5t87 -70.5t45 -89.5t12.5 -86.5q0 -82 -25.5 -162.5t-76 -144t-124 -103.5t-167.5 -40q-127 0 -206 78t-79 213zM518 1102q0 -74 27.5 -115t99.5 -41q57 0 97 33 t66 79t37 98t11 91q0 20 -4 46t-17.5 48.5t-38 37t-63.5 14.5q-59 0 -100 -34t-66.5 -80t-37 -96t-11.5 -81z" />
<glyph unicode="&#xbb;" horiz-adv-x="1191" d="M61 57l449 475l-223 447h264l231 -467l-424 -455h-297zM520 57l449 475l-224 447h265l231 -467l-424 -455h-297z" />
<glyph unicode="&#xbc;" horiz-adv-x="1765" d="M256 715q0 18 6 36.5t23 45.5h145l92 450h-137q-8 39 -8 56q0 20 7 37.5t28 39.5h321l-121 -583h125q8 -41 8 -56q0 -20 -7 -37.5t-25 -41.5h-451q-4 23 -5 33t-1 20zM334 -33l1073 1432h205l-1073 -1432h-205zM1042 150l33 137l455 438h164l-97 -465h82q4 -16 5.5 -25.5 t1.5 -13.5q0 -25 -8.5 -41t-20.5 -30h-82l-31 -162h-172l31 162h-361zM1221 260h204l54 252z" />
<glyph unicode="&#xbd;" horiz-adv-x="1765" d="M246 715q0 18 6 36.5t22 45.5h146l92 450h-137q-8 39 -8 56q0 20 7 37.5t27 39.5h322l-121 -583h125q8 -41 8 -56q0 -20 -7 -37.5t-26 -41.5h-450q-4 23 -5 33t-1 20zM303 -33l1073 1432h205l-1073 -1432h-205zM1008 -12q20 92 64 152.5t100.5 106.5t123.5 84l138 81 q33 20 64.5 50t31.5 64q0 27 -18.5 48.5t-72 21.5t-116.5 -28.5t-160 -108.5l33 174q53 33 116.5 62.5t149.5 29.5q123 0 189.5 -48t66.5 -140q0 -59 -26.5 -101.5t-67.5 -77t-92 -62.5l-104 -54q-52 -27 -98 -56.5t-77 -66.5h224l18 80q23 10 43.5 12t30.5 2q16 0 38.5 -5 t43.5 -15l-43 -205h-600z" />
<glyph unicode="&#xbe;" horiz-adv-x="1765" d="M215 735l37 142q51 -43 105.5 -71t127.5 -28q61 0 107.5 30t46.5 83q0 41 -30.5 62.5t-78.5 21.5h-63q-10 16 -11 27.5t-1 23.5q0 23 7 38t25 36h58q68 0 103.5 26.5t35.5 65.5q0 29 -18.5 53.5t-81.5 24.5q-70 0 -130.5 -24.5t-119.5 -61.5l33 147q47 29 118.5 48.5 t143.5 19.5q100 0 168.5 -47t68.5 -127q0 -66 -36.5 -111t-104.5 -74q37 -16 68.5 -53t31.5 -96q0 -45 -19.5 -89t-59 -79t-100 -56.5t-142.5 -21.5q-102 0 -172 27.5t-117 62.5zM401 -33l1074 1432h204l-1073 -1432h-205zM1090 150l32 137l455 438h164l-96 -465h81 q4 -16 5.5 -25.5t1.5 -13.5q0 -25 -8.5 -41t-20.5 -30h-82l-31 -162h-172l31 162h-360zM1268 260h205l53 252z" />
<glyph unicode="&#xbf;" horiz-adv-x="1189" d="M137 -43q0 100 37 173t94.5 127t123.5 98l128 87q61 43 106.5 93.5t57.5 117.5h244q-10 -96 -53.5 -165.5t-100.5 -123t-121.5 -94.5t-118 -82t-89 -88t-35.5 -110q0 -23 9 -48.5t31.5 -48t60.5 -38t97 -15.5q133 0 238.5 53.5t220.5 149.5l-39 -268q-43 -27 -92 -52.5 t-108.5 -46t-132 -33t-163.5 -12.5q-92 0 -165.5 26t-125 71t-78 103t-26.5 126zM682 920q0 33 12.5 63.5t34 55t52 39t67.5 14.5q25 0 51.5 -10.5t48 -30t35.5 -48t14 -65.5t-13 -69.5t-35.5 -56.5t-52.5 -38t-62 -14q-66 0 -109 44t-43 116z" />
<glyph unicode="&#xc0;" horiz-adv-x="1476" d="M25 68q0 33 9 58.5t27 53.5h117l692 1331h297l146 -1331h125q6 -35 7 -47t1 -20q0 -33 -9.5 -58.5t-27.5 -54.5h-537q-6 33 -7 45t-1 23q0 33 9.5 58.5t27.5 53.5h154l-27 269h-471l-137 -269h137q6 -35 7 -47t1 -20q0 -33 -9 -58.5t-28 -54.5h-495q-6 33 -7 45.5 t-1 22.5zM649 633h361l-60 592zM668 1890h288l193 -278h-203z" />
<glyph unicode="&#xc1;" horiz-adv-x="1476" d="M25 68q0 33 9 58.5t27 53.5h117l692 1331h297l146 -1331h125q6 -35 7 -47t1 -20q0 -33 -9.5 -58.5t-27.5 -54.5h-537q-6 33 -7 45t-1 23q0 33 9.5 58.5t27.5 53.5h154l-27 269h-471l-137 -269h137q6 -35 7 -47t1 -20q0 -33 -9 -58.5t-28 -54.5h-495q-6 33 -7 45.5 t-1 22.5zM649 633h361l-60 592zM926 1612l192 278h289l-279 -278h-202z" />
<glyph unicode="&#xc2;" horiz-adv-x="1476" d="M25 68q0 33 9 58.5t27 53.5h117l692 1331h297l146 -1331h125q6 -35 7 -47t1 -20q0 -33 -9.5 -58.5t-27.5 -54.5h-537q-6 33 -7 45t-1 23q0 33 9.5 58.5t27.5 53.5h154l-27 269h-471l-137 -269h137q6 -35 7 -47t1 -20q0 -33 -9 -58.5t-28 -54.5h-495q-6 33 -7 45.5 t-1 22.5zM649 633h361l-60 592zM657 1612l330 278h223l187 -278h-244l-82 125l-147 -125h-267z" />
<glyph unicode="&#xc3;" horiz-adv-x="1476" d="M25 68q0 33 9 58.5t27 53.5h117l692 1331h297l146 -1331h125q6 -35 7 -47t1 -20q0 -33 -9.5 -58.5t-27.5 -54.5h-537q-6 33 -7 45t-1 23q0 33 9.5 58.5t27.5 53.5h154l-27 269h-471l-137 -269h137q6 -35 7 -47t1 -20q0 -33 -9 -58.5t-28 -54.5h-495q-6 33 -7 45.5 t-1 22.5zM641 1622q23 111 89.5 185.5t174.5 74.5q57 0 94 -16.5t84 -34.5l43 -15q14 -5 37 -6q35 0 55.5 28t26.5 56h154q-23 -111 -90.5 -185.5t-161.5 -74.5q-53 0 -86 14.5t-63.5 24.5t-57.5 20.5t-61 10.5q-33 0 -53.5 -26.5t-30.5 -55.5h-154zM649 633h361l-60 592z " />
<glyph unicode="&#xc4;" horiz-adv-x="1476" d="M25 68q0 33 9 58.5t27 53.5h117l692 1331h297l146 -1331h125q6 -35 7 -47t1 -20q0 -33 -9.5 -58.5t-27.5 -54.5h-537q-6 33 -7 45t-1 23q0 33 9.5 58.5t27.5 53.5h154l-27 269h-471l-137 -269h137q6 -35 7 -47t1 -20q0 -33 -9 -58.5t-28 -54.5h-495q-6 33 -7 45.5 t-1 22.5zM649 633h361l-60 592zM705 1751q0 55 37.5 97t91 42t92.5 -42t39 -97t-39 -97t-92.5 -42t-91 42t-37.5 97zM1067 1751q0 55 38 97t91 42t92 -42t39 -97t-39 -97t-92 -42t-91 42t-38 97z" />
<glyph unicode="&#xc5;" horiz-adv-x="1476" d="M25 68q0 33 9 58.5t27 53.5h117l674 1295q-45 57 -45 131q0 43 16.5 81.5t46 68.5t68.5 46.5t82 16.5t82 -16.5t68.5 -46.5t46 -68.5t16.5 -81.5q0 -88 -59 -148l139 -1278h125q6 -35 7 -47t1 -20q0 -33 -9.5 -58.5t-27.5 -54.5h-537q-6 33 -7 45t-1 23q0 33 9.5 58.5 t27.5 53.5h154l-27 269h-471l-137 -269h137q6 -35 7 -47t1 -20q0 -33 -9 -58.5t-28 -54.5h-495q-6 33 -7 45.5t-1 22.5zM649 633h361l-60 592zM928 1606q0 -39 26.5 -66t65.5 -27t65.5 27t26.5 66t-26.5 65.5t-65.5 26.5t-65.5 -26.5t-26.5 -65.5z" />
<glyph unicode="&#xc6;" horiz-adv-x="2025" d="M12 68q0 33 9.5 58.5t27.5 53.5h117l739 1133h-121q-6 35 -7 47t-1 20q0 33 9.5 58.5t27.5 54.5h1387l-91 -449q-37 -10 -60.5 -13t-39.5 -3q-25 0 -47.5 5t-58.5 20l49 245h-457l-88 -434h530q8 -31 9.5 -48t1.5 -28q0 -35 -10.5 -61.5t-28.5 -56.5h-541l-96 -475h491 l52 258q35 12 59 15t41 3q20 0 47 -5t59 -20l-86 -446h-1091q-6 33 -7 45t-1 23q0 33 9 58.5t27 53.5h132l59 293h-463l-192 -293h137q6 -35 7 -47t1 -20q0 -33 -9 -58.5t-28 -54.5h-496q-6 33 -7 45.5t-1 22.5zM719 657h381l129 641h-92z" />
<glyph unicode="&#xc7;" horiz-adv-x="1409" d="M233 594q0 104 19.5 205.5t54.5 193.5t83 172t106 140q111 117 233.5 171t263.5 54q117 0 214.5 -38t142.5 -106l20 103q33 10 56.5 14t39.5 4q20 0 49 -4t58 -16l-119 -598q-29 -14 -55.5 -16.5t-42.5 -2.5q-18 0 -45 4.5t-64 20.5l16.5 89t8.5 122q0 96 -64.5 156.5 t-199.5 60.5q-109 0 -198 -61.5t-154.5 -163t-101.5 -232.5t-36 -270q0 -211 92 -306t258 -95q143 0 257 60t231 159l-51 -305q-78 -51 -184.5 -92.5t-241.5 -51.5l-78 -76h6q49 0 79.5 -12t48 -31.5t24 -44t6.5 -47.5q0 -47 -22.5 -84t-60.5 -62.5t-88.5 -39.5t-103.5 -14 q-72 0 -124 10t-99 30l45 117q35 -14 70.5 -22t76.5 -8q35 0 66 11t31 46q0 25 -16.5 36t-45.5 11q-12 0 -36.5 -5t-51.5 -20l-45 64l154 145q-137 16 -229.5 73.5t-148.5 142.5t-80 190.5t-24 218.5z" />
<glyph unicode="&#xc8;" horiz-adv-x="1247" d="M66 68q0 33 9 58.5t27 53.5h131l228 1133h-127q-6 35 -7 47t-1 20q0 33 9 58.5t27 54.5h1068l-91 -449q-37 -10 -60.5 -13t-39.5 -3q-25 0 -47.5 5t-58.5 20l49 245h-457l-88 -434h530q8 -31 9.5 -48t1.5 -28q0 -35 -10.5 -61.5t-28.5 -56.5h-541l-96 -475h491l51 258 q35 12 59.5 15t41.5 3q20 0 47 -5t59 -20l-86 -446h-1091q-6 33 -7 45.5t-1 22.5zM649 1890h289l192 -278h-202z" />
<glyph unicode="&#xc9;" horiz-adv-x="1247" d="M66 68q0 33 9 58.5t27 53.5h131l228 1133h-127q-6 35 -7 47t-1 20q0 33 9 58.5t27 54.5h1068l-91 -449q-37 -10 -60.5 -13t-39.5 -3q-25 0 -47.5 5t-58.5 20l49 245h-457l-88 -434h530q8 -31 9.5 -48t1.5 -28q0 -35 -10.5 -61.5t-28.5 -56.5h-541l-96 -475h491l51 258 q35 12 59.5 15t41.5 3q20 0 47 -5t59 -20l-86 -446h-1091q-6 33 -7 45.5t-1 22.5zM831 1612l193 278h289l-279 -278h-203z" />
<glyph unicode="&#xca;" horiz-adv-x="1247" d="M66 68q0 33 9 58.5t27 53.5h131l228 1133h-127q-6 35 -7 47t-1 20q0 33 9 58.5t27 54.5h1068l-91 -449q-37 -10 -60.5 -13t-39.5 -3q-25 0 -47.5 5t-58.5 20l49 245h-457l-88 -434h530q8 -31 9.5 -48t1.5 -28q0 -35 -10.5 -61.5t-28.5 -56.5h-541l-96 -475h491l51 258 q35 12 59.5 15t41.5 3q20 0 47 -5t59 -20l-86 -446h-1091q-6 33 -7 45.5t-1 22.5zM575 1612l330 278h223l187 -278h-244l-82 125l-147 -125h-267z" />
<glyph unicode="&#xcb;" horiz-adv-x="1247" d="M66 68q0 33 9 58.5t27 53.5h131l228 1133h-127q-6 35 -7 47t-1 20q0 33 9 58.5t27 54.5h1068l-91 -449q-37 -10 -60.5 -13t-39.5 -3q-25 0 -47.5 5t-58.5 20l49 245h-457l-88 -434h530q8 -31 9.5 -48t1.5 -28q0 -35 -10.5 -61.5t-28.5 -56.5h-541l-96 -475h491l51 258 q35 12 59.5 15t41.5 3q20 0 47 -5t59 -20l-86 -446h-1091q-6 33 -7 45.5t-1 22.5zM641 1751q0 55 38 97t91 42t92 -42t39 -97t-39 -97t-92 -42t-91 42t-38 97zM1004 1751q0 55 37.5 97t91 42t92.5 -42t39 -97t-39 -97t-92.5 -42t-91 42t-37.5 97z" />
<glyph unicode="&#xcc;" horiz-adv-x="694" d="M82 68q0 33 9 58.5t28 53.5h131l227 1133h-127q-6 35 -7 47t-1 20q0 33 9 58.5t28 54.5h524q6 -33 7 -45t1 -23q0 -33 -9 -58.5t-28 -53.5h-131l-227 -1133h127q6 -35 7 -47t1 -20q0 -33 -9 -58.5t-28 -54.5h-524q-6 33 -7 45.5t-1 22.5zM303 1890h289l192 -278h-202z " />
<glyph unicode="&#xcd;" horiz-adv-x="694" d="M82 68q0 33 9 58.5t28 53.5h131l227 1133h-127q-6 35 -7 47t-1 20q0 33 9 58.5t28 54.5h524q6 -33 7 -45t1 -23q0 -33 -9 -58.5t-28 -53.5h-131l-227 -1133h127q6 -35 7 -47t1 -20q0 -33 -9 -58.5t-28 -54.5h-524q-6 33 -7 45.5t-1 22.5zM553 1612l192 278h289l-278 -278 h-203z" />
<glyph unicode="&#xce;" horiz-adv-x="694" d="M82 68q0 33 9 58.5t28 53.5h131l227 1133h-127q-6 35 -7 47t-1 20q0 33 9 58.5t28 54.5h524q6 -33 7 -45t1 -23q0 -33 -9 -58.5t-28 -53.5h-131l-227 -1133h127q6 -35 7 -47t1 -20q0 -33 -9 -58.5t-28 -54.5h-524q-6 33 -7 45.5t-1 22.5zM279 1612l329 278h223l187 -278 h-244l-82 125l-147 -125h-266z" />
<glyph unicode="&#xcf;" horiz-adv-x="694" d="M82 68q0 33 9 58.5t28 53.5h131l227 1133h-127q-6 35 -7 47t-1 20q0 33 9 58.5t28 54.5h524q6 -33 7 -45t1 -23q0 -33 -9 -58.5t-28 -53.5h-131l-227 -1133h127q6 -35 7 -47t1 -20q0 -33 -9 -58.5t-28 -54.5h-524q-6 33 -7 45.5t-1 22.5zM369 1751q0 55 37.5 97t91 42 t92.5 -42t39 -97t-39 -97t-92.5 -42t-91 42t-37.5 97zM731 1751q0 55 38 97t91 42t92 -42t39 -97t-39 -97t-92 -42t-91 42t-38 97z" />
<glyph unicode="&#xd0;" horiz-adv-x="1441" d="M66 68q0 33 9 58.5t27 53.5h131l99 494h-152l37 188h154l90 451h-127q-6 35 -7 47t-1 20q0 33 9 58.5t27 54.5h576q176 0 287.5 -51t175 -132t87 -184.5t23.5 -207.5q0 -240 -74.5 -421.5t-217.5 -312.5q-96 -86 -221.5 -135t-266.5 -49h-657q-6 33 -7 45.5t-1 22.5z M502 195h176q104 0 191 36.5t157 106.5q96 94 148.5 241.5t52.5 327.5q0 78 -14.5 148.5t-52.5 125t-104.5 86t-170.5 31.5h-160l-88 -436h291l-37 -188h-293z" />
<glyph unicode="&#xd1;" horiz-adv-x="1480" d="M66 68q0 33 9 58.5t27 53.5h131l228 1133h-127q-6 35 -7 47t-1 20q0 33 9 58.5t27 54.5h404l358 -1102l183 922h-140q-6 35 -7 47t-1 20q0 33 9.5 58.5t27.5 54.5h514q6 -33 7 -45t1 -23q0 -33 -9 -58.5t-28 -53.5h-139l-262 -1331h-246l-375 1140l-190 -942h147 q6 -35 7.5 -47t1.5 -20q0 -33 -9.5 -58.5t-27.5 -54.5h-514q-6 33 -7 45.5t-1 22.5zM725 1622q23 111 89.5 185.5t174.5 74.5q57 0 94 -16.5t84 -34.5l43 -15q14 -5 37 -6q35 0 55.5 28t26.5 56h154q-23 -111 -90.5 -185.5t-161.5 -74.5q-53 0 -86 14.5t-63.5 24.5 t-57.5 20.5t-61 10.5q-33 0 -53.5 -26.5t-30.5 -55.5h-154z" />
<glyph unicode="&#xd2;" horiz-adv-x="1544" d="M238 602q0 106 22.5 216t66.5 213.5t111.5 193.5t155.5 158.5t197.5 107.5t240.5 39q141 0 242.5 -39t177.5 -117q80 -82 118 -200.5t38 -260.5q0 -166 -48.5 -335.5t-146.5 -306t-247.5 -222.5t-352.5 -86q-141 0 -237.5 39t-161.5 104q-49 49 -83 108.5t-54.5 124 t-29.5 131t-9 132.5zM522 586q0 -131 30 -209t75 -121q43 -41 95 -59.5t105 -18.5q70 0 141.5 32t135.5 95q94 94 156.5 253t62.5 357q0 209 -94 310q-37 39 -89.5 64.5t-123.5 25.5q-80 0 -154 -35t-135 -100q-47 -49 -84 -115t-64.5 -142.5t-42 -162.5t-14.5 -174z M766 1890h289l192 -278h-203z" />
<glyph unicode="&#xd3;" horiz-adv-x="1544" d="M238 602q0 106 22.5 216t66.5 213.5t111.5 193.5t155.5 158.5t197.5 107.5t240.5 39q141 0 242.5 -39t177.5 -117q80 -82 118 -200.5t38 -260.5q0 -166 -48.5 -335.5t-146.5 -306t-247.5 -222.5t-352.5 -86q-141 0 -237.5 39t-161.5 104q-49 49 -83 108.5t-54.5 124 t-29.5 131t-9 132.5zM522 586q0 -131 30 -209t75 -121q43 -41 95 -59.5t105 -18.5q70 0 141.5 32t135.5 95q94 94 156.5 253t62.5 357q0 209 -94 310q-37 39 -89.5 64.5t-123.5 25.5q-80 0 -154 -35t-135 -100q-47 -49 -84 -115t-64.5 -142.5t-42 -162.5t-14.5 -174z M940 1612l193 278h288l-278 -278h-203z" />
<glyph unicode="&#xd4;" horiz-adv-x="1544" d="M238 602q0 106 22.5 216t66.5 213.5t111.5 193.5t155.5 158.5t197.5 107.5t240.5 39q141 0 242.5 -39t177.5 -117q80 -82 118 -200.5t38 -260.5q0 -166 -48.5 -335.5t-146.5 -306t-247.5 -222.5t-352.5 -86q-141 0 -237.5 39t-161.5 104q-49 49 -83 108.5t-54.5 124 t-29.5 131t-9 132.5zM522 586q0 -131 30 -209t75 -121q43 -41 95 -59.5t105 -18.5q70 0 141.5 32t135.5 95q94 94 156.5 253t62.5 357q0 209 -94 310q-37 39 -89.5 64.5t-123.5 25.5q-80 0 -154 -35t-135 -100q-47 -49 -84 -115t-64.5 -142.5t-42 -162.5t-14.5 -174z M723 1612l330 278h223l186 -278h-243l-82 125l-148 -125h-266z" />
<glyph unicode="&#xd5;" horiz-adv-x="1544" d="M238 602q0 106 22.5 216t66.5 213.5t111.5 193.5t155.5 158.5t197.5 107.5t240.5 39q141 0 242.5 -39t177.5 -117q80 -82 118 -200.5t38 -260.5q0 -166 -48.5 -335.5t-146.5 -306t-247.5 -222.5t-352.5 -86q-141 0 -237.5 39t-161.5 104q-49 49 -83 108.5t-54.5 124 t-29.5 131t-9 132.5zM522 586q0 -131 30 -209t75 -121q43 -41 95 -59.5t105 -18.5q70 0 141.5 32t135.5 95q94 94 156.5 253t62.5 357q0 209 -94 310q-37 39 -89.5 64.5t-123.5 25.5q-80 0 -154 -35t-135 -100q-47 -49 -84 -115t-64.5 -142.5t-42 -162.5t-14.5 -174z M719 1622q23 111 89 185.5t175 74.5q57 0 94 -16.5t84 -34.5l43 -15q14 -5 37 -6q35 0 55.5 28t26.5 56h154q-23 -111 -90.5 -185.5t-161.5 -74.5q-53 0 -86 14.5t-64 24.5t-57.5 20.5t-61.5 10.5q-33 0 -53 -26.5t-31 -55.5h-153z" />
<glyph unicode="&#xd6;" horiz-adv-x="1544" d="M238 602q0 106 22.5 216t66.5 213.5t111.5 193.5t155.5 158.5t197.5 107.5t240.5 39q141 0 242.5 -39t177.5 -117q80 -82 118 -200.5t38 -260.5q0 -166 -48.5 -335.5t-146.5 -306t-247.5 -222.5t-352.5 -86q-141 0 -237.5 39t-161.5 104q-49 49 -83 108.5t-54.5 124 t-29.5 131t-9 132.5zM522 586q0 -131 30 -209t75 -121q43 -41 95 -59.5t105 -18.5q70 0 141.5 32t135.5 95q94 94 156.5 253t62.5 357q0 209 -94 310q-37 39 -89.5 64.5t-123.5 25.5q-80 0 -154 -35t-135 -100q-47 -49 -84 -115t-64.5 -142.5t-42 -162.5t-14.5 -174z M795 1751q0 55 37.5 97t91 42t92.5 -42t39 -97t-39 -97t-92.5 -42t-91 42t-37.5 97zM1157 1751q0 55 38 97t91 42t92 -42t39 -97t-39 -97t-92 -42t-91 42t-38 97z" />
<glyph unicode="&#xd7;" d="M236 389l294 295l-294 295l147 149l297 -294l295 294l147 -145l-297 -297l297 -297l-149 -147l-295 297l-297 -297z" />
<glyph unicode="&#xd8;" horiz-adv-x="1544" d="M156 86l159 156q-43 84 -60 177t-17 183q0 106 22.5 216t66.5 213.5t111.5 193.5t155.5 158.5t197.5 107.5t240.5 39q141 0 242.5 -40t177.5 -116l6 -6l176 174l133 -135l-208 -205q49 -127 49 -289q0 -166 -48.5 -335.5t-146.5 -306t-247.5 -222.5t-352.5 -86 q-133 0 -225 35t-158 92l-141 -139zM522 586q0 -35 3 -68t7 -61l732 721l-17 24q-8 12 -18 23q-37 39 -89.5 64.5t-123.5 25.5q-80 0 -154 -35t-135 -100q-47 -49 -84 -115t-64.5 -142.5t-42 -162.5t-14.5 -174zM612 270l15 -14q43 -41 95 -59.5t105 -18.5q70 0 141.5 32 t135.5 95q94 94 156.5 253t62.5 357v26q0 13 -2 26z" />
<glyph unicode="&#xd9;" horiz-adv-x="1478" d="M291 375q0 49 4 86t8 63l156 789h-127q-6 35 -7 47t-1 20q0 33 9 58.5t27 54.5h525q6 -33 7 -45t1 -23q0 -33 -9.5 -58.5t-27.5 -53.5h-131l-150 -758q-10 -51 -15 -88t-5 -66q0 -61 19.5 -103t54.5 -66.5t81 -36t99 -11.5q72 0 127 21.5t94 60.5q41 43 68.5 107.5 t46.5 163.5l151 776h-127q-6 35 -7 47t-1 20q0 33 9.5 58.5t27.5 54.5h512q6 -33 7 -45t1 -23q0 -33 -9 -58.5t-28 -53.5h-133l-155 -797q-29 -145 -73 -236.5t-110 -156.5q-78 -78 -183 -119t-245 -41q-121 0 -213 32t-153.5 87t-93 130t-31.5 163zM733 1890h289l192 -278 h-202z" />
<glyph unicode="&#xda;" horiz-adv-x="1478" d="M291 375q0 49 4 86t8 63l156 789h-127q-6 35 -7 47t-1 20q0 33 9 58.5t27 54.5h525q6 -33 7 -45t1 -23q0 -33 -9.5 -58.5t-27.5 -53.5h-131l-150 -758q-10 -51 -15 -88t-5 -66q0 -61 19.5 -103t54.5 -66.5t81 -36t99 -11.5q72 0 127 21.5t94 60.5q41 43 68.5 107.5 t46.5 163.5l151 776h-127q-6 35 -7 47t-1 20q0 33 9.5 58.5t27.5 54.5h512q6 -33 7 -45t1 -23q0 -33 -9 -58.5t-28 -53.5h-133l-155 -797q-29 -145 -73 -236.5t-110 -156.5q-78 -78 -183 -119t-245 -41q-121 0 -213 32t-153.5 87t-93 130t-31.5 163zM958 1612l193 278h289 l-279 -278h-203z" />
<glyph unicode="&#xdb;" horiz-adv-x="1478" d="M291 375q0 49 4 86t8 63l156 789h-127q-6 35 -7 47t-1 20q0 33 9 58.5t27 54.5h525q6 -33 7 -45t1 -23q0 -33 -9.5 -58.5t-27.5 -53.5h-131l-150 -758q-10 -51 -15 -88t-5 -66q0 -61 19.5 -103t54.5 -66.5t81 -36t99 -11.5q72 0 127 21.5t94 60.5q41 43 68.5 107.5 t46.5 163.5l151 776h-127q-6 35 -7 47t-1 20q0 33 9.5 58.5t27.5 54.5h512q6 -33 7 -45t1 -23q0 -33 -9 -58.5t-28 -53.5h-133l-155 -797q-29 -145 -73 -236.5t-110 -156.5q-78 -78 -183 -119t-245 -41q-121 0 -213 32t-153.5 87t-93 130t-31.5 163zM690 1612l330 278h223 l187 -278h-244l-82 125l-148 -125h-266z" />
<glyph unicode="&#xdc;" horiz-adv-x="1478" d="M291 375q0 49 4 86t8 63l156 789h-127q-6 35 -7 47t-1 20q0 33 9 58.5t27 54.5h525q6 -33 7 -45t1 -23q0 -33 -9.5 -58.5t-27.5 -53.5h-131l-150 -758q-10 -51 -15 -88t-5 -66q0 -61 19.5 -103t54.5 -66.5t81 -36t99 -11.5q72 0 127 21.5t94 60.5q41 43 68.5 107.5 t46.5 163.5l151 776h-127q-6 35 -7 47t-1 20q0 33 9.5 58.5t27.5 54.5h512q6 -33 7 -45t1 -23q0 -33 -9 -58.5t-28 -53.5h-133l-155 -797q-29 -145 -73 -236.5t-110 -156.5q-78 -78 -183 -119t-245 -41q-121 0 -213 32t-153.5 87t-93 130t-31.5 163zM760 1751q0 55 38 97 t91 42t92 -42t39 -97t-39 -97t-92 -42t-91 42t-38 97zM1122 1751q0 55 38 97t91.5 42t92 -42t38.5 -97t-38.5 -97t-92 -42t-91.5 42t-38 97z" />
<glyph unicode="&#xdd;" horiz-adv-x="1425" d="M299 1380q0 33 9 58.5t28 54.5h520q6 -33 7 -45t1 -23q0 -33 -9 -58.5t-28 -53.5h-143l199 -498l417 498h-149q-6 35 -7 47t-1 20q0 33 9 58.5t28 54.5h514q6 -33 7 -45t1 -23q0 -33 -9.5 -58.5t-27.5 -53.5h-94l-604 -725l-82 -408h143q6 -35 7 -47t1 -20 q0 -33 -9 -58.5t-28 -54.5h-540q-6 33 -7 45t-1 23q0 33 9 58.5t27 53.5h131l87 426l-293 707h-105q-6 35 -7 47t-1 20zM922 1612l192 278h289l-279 -278h-202z" />
<glyph unicode="&#xde;" horiz-adv-x="1239" d="M66 68q0 33 9 58.5t27 53.5h131l228 1133h-127q-6 35 -7 47t-1 20q0 33 9 58.5t27 54.5h515q6 -33 7 -45t1 -23q0 -33 -9.5 -58.5t-27.5 -53.5h-131l-25 -123h248q121 0 199 -31t124 -82t63 -118.5t17 -141.5q0 -104 -34.5 -195.5t-103 -159t-169 -105.5t-229.5 -38h-291 l-27 -139h127q6 -35 7.5 -47t1.5 -20q0 -33 -9.5 -58.5t-27.5 -54.5h-514q-6 33 -7 45.5t-1 22.5zM555 514h229q135 0 212 79t77 222q0 84 -46 132t-150 48h-224z" />
<glyph unicode="&#xdf;" horiz-adv-x="1218" d="M-129 -319l39 192l51 -20q20 -8 37.5 -12.5t34 -6.5t35.5 -2q37 0 67.5 32t44.5 118l193 1140q18 102 57 186.5t100.5 142.5t144.5 90t189 32q115 0 195 -31t129 -79t71.5 -108.5t22.5 -117.5q0 -78 -21.5 -140.5t-57.5 -113.5t-84 -88t-99 -61q207 -84 207 -310 q0 -127 -37 -229t-99.5 -174t-146.5 -111t-178 -39q-84 0 -135 15.5t-92 31.5l32 199q41 -20 76 -28.5t90 -8.5q37 0 76 18.5t70.5 58.5t53 102.5t21.5 152.5q0 104 -52 161.5t-185 57.5h-23q-8 29 -10 42t-2 24q0 39 12.5 72.5t34.5 58.5h10q63 0 115.5 23.5t89.5 63.5 t57.5 91t20.5 106q0 27 -8 56.5t-27.5 54.5t-51.5 41t-81 16q-121 0 -173 -91t-81 -271l-166 -1026q-16 -94 -50 -162t-83 -112t-109.5 -65.5t-127.5 -21.5q-55 0 -99.5 11.5t-97.5 38.5z" />
<glyph unicode="&#xe0;" horiz-adv-x="1230" d="M170 373q0 176 57.5 319.5t163.5 249.5q78 78 172 114t182 36q84 0 160 -32t115 -110l65 113h164l-182 -895h117q8 -31 9 -42t1 -22q0 -66 -43 -104h-342l37 193l-43.5 -67t-57.5 -63q-41 -37 -106.5 -64.5t-142.5 -27.5q-66 0 -122.5 21.5t-94.5 60.5q-57 57 -83 137.5 t-26 182.5zM440 397q0 -117 43 -161q18 -20 42 -31.5t59 -11.5q43 0 86 21.5t88 70.5q70 78 116 195.5t46 250.5q0 49 -12.5 82t-33.5 53q-39 39 -104 39q-68 0 -128 -45t-105 -117.5t-71 -164t-26 -181.5zM608 1456h289l193 -278h-203z" />
<glyph unicode="&#xe1;" horiz-adv-x="1230" d="M170 373q0 176 57.5 319.5t163.5 249.5q78 78 172 114t182 36q84 0 160 -32t115 -110l65 113h164l-182 -895h117q8 -31 9 -42t1 -22q0 -66 -43 -104h-342l37 193l-43.5 -67t-57.5 -63q-41 -37 -106.5 -64.5t-142.5 -27.5q-66 0 -122.5 21.5t-94.5 60.5q-57 57 -83 137.5 t-26 182.5zM440 397q0 -117 43 -161q18 -20 42 -31.5t59 -11.5q43 0 86 21.5t88 70.5q70 78 116 195.5t46 250.5q0 49 -12.5 82t-33.5 53q-39 39 -104 39q-68 0 -128 -45t-105 -117.5t-71 -164t-26 -181.5zM741 1178l193 278h289l-279 -278h-203z" />
<glyph unicode="&#xe2;" horiz-adv-x="1230" d="M170 373q0 176 57.5 319.5t163.5 249.5q78 78 172 114t182 36q84 0 160 -32t115 -110l65 113h164l-182 -895h117q8 -31 9 -42t1 -22q0 -66 -43 -104h-342l37 193l-43.5 -67t-57.5 -63q-41 -37 -106.5 -64.5t-142.5 -27.5q-66 0 -122.5 21.5t-94.5 60.5q-57 57 -83 137.5 t-26 182.5zM440 397q0 -117 43 -161q18 -20 42 -31.5t59 -11.5q43 0 86 21.5t88 70.5q70 78 116 195.5t46 250.5q0 49 -12.5 82t-33.5 53q-39 39 -104 39q-68 0 -128 -45t-105 -117.5t-71 -164t-26 -181.5zM494 1178l329 278h224l186 -278h-244l-82 125l-147 -125h-266z" />
<glyph unicode="&#xe3;" horiz-adv-x="1230" d="M170 373q0 176 57.5 319.5t163.5 249.5q78 78 172 114t182 36q84 0 160 -32t115 -110l65 113h164l-182 -895h117q8 -31 9 -42t1 -22q0 -66 -43 -104h-342l37 193l-43.5 -67t-57.5 -63q-41 -37 -106.5 -64.5t-142.5 -27.5q-66 0 -122.5 21.5t-94.5 60.5q-57 57 -83 137.5 t-26 182.5zM440 397q0 -117 43 -161q18 -20 42 -31.5t59 -11.5q43 0 86 21.5t88 70.5q70 78 116 195.5t46 250.5q0 49 -12.5 82t-33.5 53q-39 39 -104 39q-68 0 -128 -45t-105 -117.5t-71 -164t-26 -181.5zM498 1188q23 111 89 185.5t175 74.5q57 0 94 -16.5t84 -34.5 l43 -16q14 -5 37 -5q35 0 55.5 28t26.5 56h153q-23 -111 -90 -185.5t-161 -74.5q-53 0 -86 14.5t-64 24.5t-57.5 20.5t-61.5 10.5q-33 0 -53 -26.5t-31 -55.5h-153z" />
<glyph unicode="&#xe4;" horiz-adv-x="1230" d="M170 373q0 176 57.5 319.5t163.5 249.5q78 78 172 114t182 36q84 0 160 -32t115 -110l65 113h164l-182 -895h117q8 -31 9 -42t1 -22q0 -66 -43 -104h-342l37 193l-43.5 -67t-57.5 -63q-41 -37 -106.5 -64.5t-142.5 -27.5q-66 0 -122.5 21.5t-94.5 60.5q-57 57 -83 137.5 t-26 182.5zM440 397q0 -117 43 -161q18 -20 42 -31.5t59 -11.5q43 0 86 21.5t88 70.5q70 78 116 195.5t46 250.5q0 49 -12.5 82t-33.5 53q-39 39 -104 39q-68 0 -128 -45t-105 -117.5t-71 -164t-26 -181.5zM575 1317q0 55 38 97t91.5 42t92.5 -42t39 -97t-39 -97t-92.5 -42 t-91.5 42t-38 97zM938 1317q0 55 38 97t91 42t92 -42t39 -97t-39 -97t-92 -42t-91 42t-38 97z" />
<glyph unicode="&#xe5;" horiz-adv-x="1230" d="M170 373q0 176 57.5 319.5t163.5 249.5q78 78 172 114t182 36q84 0 160 -32t115 -110l65 113h164l-182 -895h117q8 -31 9 -42t1 -22q0 -66 -43 -104h-342l37 193l-43.5 -67t-57.5 -63q-41 -37 -106.5 -64.5t-142.5 -27.5q-66 0 -122.5 21.5t-94.5 60.5q-57 57 -83 137.5 t-26 182.5zM440 397q0 -117 43 -161q18 -20 42 -31.5t59 -11.5q43 0 86 21.5t88 70.5q70 78 116 195.5t46 250.5q0 49 -12.5 82t-33.5 53q-39 39 -104 39q-68 0 -128 -45t-105 -117.5t-71 -164t-26 -181.5zM668 1386.5q0 43.5 16 82t46 68.5t69 46t82 16t81.5 -16t68.5 -46 t46.5 -68.5t16.5 -82t-16.5 -82t-46.5 -68.5t-68.5 -46t-81.5 -16t-82 16t-69 46t-46 68.5t-16 82zM788 1386.5q0 -38.5 27 -65.5t66 -27t65.5 27t26.5 65.5t-26.5 65.5t-65.5 27t-66 -27t-27 -65.5z" />
<glyph unicode="&#xe6;" horiz-adv-x="1736" d="M170 373q0 176 57.5 319.5t163.5 249.5q78 78 172 114t182 36q86 0 160 -32t115 -110l65 113h144l-23 -109q59 59 141.5 98.5t192.5 39.5q135 0 209 -73t74 -192q0 -84 -44 -160.5t-131 -135t-217.5 -93.5t-300.5 -35q4 -129 67 -177t163 -48q92 0 180 35t180 94 l-32 -229q-86 -49 -182.5 -78t-207.5 -29q-94 0 -160.5 23.5t-112.5 59.5t-72.5 76t-41.5 75q-31 -45 -74.5 -87t-95 -75t-111 -52.5t-120.5 -19.5q-78 0 -135.5 22.5t-95.5 61.5q-57 57 -83 136.5t-26 181.5zM440 397q0 -117 43 -161q18 -20 42 -31.5t59 -11.5 q43 0 86 21.5t88 70.5q70 78 116 195.5t46 250.5q0 49 -12.5 82t-33.5 53q-39 39 -104 39q-68 0 -128 -45t-105 -117.5t-71 -164t-26 -181.5zM1149 578q117 0 199 19t132 51t73.5 71t23.5 76q0 49 -29 82q-16 16 -39.5 26t-64.5 10q-47 0 -92 -23.5t-84 -67.5t-70 -106 t-49 -138z" />
<glyph unicode="&#xe7;" horiz-adv-x="1060" d="M172 434q0 92 30.5 207t97.5 215t173.5 168t257.5 68q78 0 144.5 -28t99.5 -69l12 64q31 12 47.5 14t32.5 2t43 -4t51 -16l-94 -447q-29 -10 -49.5 -13t-36.5 -3t-35.5 3t-58.5 15l12 74q6 37 6 59q0 20 -3 49t-18.5 54.5t-47 43t-88.5 17.5q-53 0 -98.5 -21.5 t-88.5 -68.5q-55 -61 -92 -159.5t-37 -221.5q0 -74 18.5 -123t51.5 -79.5t78 -44t100 -13.5q102 0 187 48t177 130l-53 -270q-78 -51 -145.5 -73.5t-132.5 -30.5l-92 -91h6q49 0 79.5 -12t48 -31.5t23.5 -44t6 -47.5q0 -47 -22.5 -84t-60 -62.5t-88 -39.5t-103.5 -14 q-72 0 -124 10t-99 30l45 117q35 -14 70.5 -22t76.5 -8q35 0 65.5 11t30.5 46q0 25 -16 36t-45 11q-12 0 -36.5 -5t-51.5 -20l-45 64l162 153q-193 23 -282 147t-89 310z" />
<glyph unicode="&#xe8;" horiz-adv-x="1036" d="M174 430q0 51 10.5 114.5t35 130t63.5 132t94 123.5q70 72 167 117t232 45q86 0 151.5 -21.5t108.5 -59.5t64.5 -89.5t21.5 -110.5q0 -84 -44 -157.5t-131 -129t-217 -88.5t-300 -33q4 -129 66.5 -177t162.5 -48q45 0 87 8.5t85 26.5t90.5 47t100.5 70l-35 -252 q-86 -49 -182 -78t-207 -29q-98 0 -174 29t-129 80q-66 63 -93.5 151t-27.5 199zM451 588q117 0 197.5 19.5t131.5 50t74 68.5t23 75q0 49 -27 78q-16 16 -41 26t-61 10q-47 0 -93.5 -24.5t-85.5 -67.5t-69.5 -103t-48.5 -132zM532 1456h289l193 -278h-203z" />
<glyph unicode="&#xe9;" horiz-adv-x="1036" d="M174 430q0 51 10.5 114.5t35 130t63.5 132t94 123.5q70 72 167 117t232 45q86 0 151.5 -21.5t108.5 -59.5t64.5 -89.5t21.5 -110.5q0 -84 -44 -157.5t-131 -129t-217 -88.5t-300 -33q4 -129 66.5 -177t162.5 -48q45 0 87 8.5t85 26.5t90.5 47t100.5 70l-35 -252 q-86 -49 -182 -78t-207 -29q-98 0 -174 29t-129 80q-66 63 -93.5 151t-27.5 199zM451 588q117 0 197.5 19.5t131.5 50t74 68.5t23 75q0 49 -27 78q-16 16 -41 26t-61 10q-47 0 -93.5 -24.5t-85.5 -67.5t-69.5 -103t-48.5 -132zM686 1178l193 278h288l-278 -278h-203z" />
<glyph unicode="&#xea;" horiz-adv-x="1036" d="M174 430q0 51 10.5 114.5t35 130t63.5 132t94 123.5q70 72 167 117t232 45q86 0 151.5 -21.5t108.5 -59.5t64.5 -89.5t21.5 -110.5q0 -84 -44 -157.5t-131 -129t-217 -88.5t-300 -33q4 -129 66.5 -177t162.5 -48q45 0 87 8.5t85 26.5t90.5 47t100.5 70l-35 -252 q-86 -49 -182 -78t-207 -29q-98 0 -174 29t-129 80q-66 63 -93.5 151t-27.5 199zM428 1178l330 278h223l186 -278h-243l-82 125l-148 -125h-266zM451 588q117 0 197.5 19.5t131.5 50t74 68.5t23 75q0 49 -27 78q-16 16 -41 26t-61 10q-47 0 -93.5 -24.5t-85.5 -67.5 t-69.5 -103t-48.5 -132z" />
<glyph unicode="&#xeb;" horiz-adv-x="1036" d="M174 430q0 51 10.5 114.5t35 130t63.5 132t94 123.5q70 72 167 117t232 45q86 0 151.5 -21.5t108.5 -59.5t64.5 -89.5t21.5 -110.5q0 -84 -44 -157.5t-131 -129t-217 -88.5t-300 -33q4 -129 66.5 -177t162.5 -48q45 0 87 8.5t85 26.5t90.5 47t100.5 70l-35 -252 q-86 -49 -182 -78t-207 -29q-98 0 -174 29t-129 80q-66 63 -93.5 151t-27.5 199zM451 588q117 0 197.5 19.5t131.5 50t74 68.5t23 75q0 49 -27 78q-16 16 -41 26t-61 10q-47 0 -93.5 -24.5t-85.5 -67.5t-69.5 -103t-48.5 -132zM541 1317q0 55 37.5 97t91 42t92.5 -42t39 -97 t-39 -97t-92.5 -42t-91 42t-37.5 97zM903 1317q0 55 38 97t91 42t92 -42t39 -97t-39 -97t-92 -42t-91 42t-38 97z" />
<glyph unicode="&#xec;" horiz-adv-x="653" d="M201 0l180 895h-117q-6 31 -7 42t-1 21q0 66 41 105h373l-181 -895h117q8 -31 9 -42t1 -22q0 -66 -43 -104h-372zM201 1456h288l193 -278h-203z" />
<glyph unicode="&#xed;" horiz-adv-x="653" d="M201 0l180 895h-117q-6 31 -7 42t-1 21q0 66 41 105h373l-181 -895h117q8 -31 9 -42t1 -22q0 -66 -43 -104h-372zM432 1178l193 278h288l-278 -278h-203z" />
<glyph unicode="&#xee;" horiz-adv-x="653" d="M143 1178l330 278h223l187 -278h-244l-82 125l-147 -125h-267zM201 0l180 895h-117q-6 31 -7 42t-1 21q0 66 41 105h373l-181 -895h117q8 -31 9 -42t1 -22q0 -66 -43 -104h-372z" />
<glyph unicode="&#xef;" horiz-adv-x="653" d="M201 0l180 895h-117q-6 31 -7 42t-1 21q0 66 41 105h373l-181 -895h117q8 -31 9 -42t1 -22q0 -66 -43 -104h-372zM203 1317q0 55 38 97t91 42t92 -42t39 -97t-39 -97t-92 -42t-91 42t-38 97zM565 1317q0 55 38 97t91.5 42t92 -42t38.5 -97t-38.5 -97t-92 -42t-91.5 42 t-38 97z" />
<glyph unicode="&#xf0;" horiz-adv-x="1183" d="M174 412q0 61 11.5 126.5t35 130t59 125t85.5 111.5q70 72 161.5 117t208.5 45q70 0 121 -18.5t86 -47.5q-16 70 -45 129.5t-66 108.5l-167 -117l-82 113l153 108q-70 61 -151 99l84 143q123 -51 225 -129l164 115l86 -111l-144 -100q68 -70 111 -146.5t67.5 -155.5 t35 -158t10.5 -152q0 -207 -63.5 -365t-168.5 -260q-72 -72 -165 -112t-199 -40q-121 0 -197 31t-135 88q-59 59 -90 138.5t-31 183.5zM434 401q0 -113 45 -177t150 -64q86 0 145.5 54t96 131t54 160t17.5 142q0 33 -7 73t-26.5 75.5t-57.5 59.5t-99 24q-63 0 -111.5 -28 t-84.5 -72t-58.5 -98t-37 -106.5t-20.5 -99.5t-6 -74z" />
<glyph unicode="&#xf1;" horiz-adv-x="1249" d="M188 0l181 895h-117q-6 31 -7 42t-1 21q0 66 41 105h344l-43 -213q18 35 52 77t81 78.5t106.5 61.5t126.5 25q125 0 198 -60.5t73 -165.5q0 -41 -4.5 -88t-20.5 -116l-113 -494h117q8 -31 9 -42t1 -22q0 -66 -43 -104h-376l153 672q18 86 19 131q0 23 -7.5 36t-17.5 23 q-23 25 -74 25q-43 0 -93 -34t-97 -97.5t-88 -156.5t-66 -210l-80 -389h-254zM528 1188q23 111 89.5 185.5t175.5 74.5q57 0 94 -16.5t84 -34.5l43 -16q14 -5 37 -5q35 0 55 28t27 56h153q-23 -111 -90.5 -185.5t-161.5 -74.5q-53 0 -86 14.5t-63.5 24.5t-57 20.5 t-61.5 10.5q-33 0 -53.5 -26.5t-30.5 -55.5h-154z" />
<glyph unicode="&#xf2;" horiz-adv-x="1165" d="M174 420q0 102 35 220t106.5 218t184 167t266.5 67q111 0 190.5 -35t130.5 -86q70 -70 92.5 -153t22.5 -159q0 -72 -13 -145.5t-40 -143t-67 -133t-91 -114.5q-72 -72 -165 -112t-199 -40q-121 0 -197 31t-135 88q-59 59 -90 142.5t-31 187.5zM434 410q0 -113 45 -181.5 t150 -68.5q86 0 145.5 57t96 137t54 167t17.5 147q0 33 -7 73.5t-26.5 76.5t-57.5 60.5t-99 24.5q-63 0 -111.5 -28.5t-84.5 -74.5t-58.5 -102.5t-37 -111t-20.5 -102t-6 -74.5zM494 1456h288l193 -278h-203z" />
<glyph unicode="&#xf3;" horiz-adv-x="1165" d="M174 420q0 102 35 220t106.5 218t184 167t266.5 67q111 0 190.5 -35t130.5 -86q70 -70 92.5 -153t22.5 -159q0 -72 -13 -145.5t-40 -143t-67 -133t-91 -114.5q-72 -72 -165 -112t-199 -40q-121 0 -197 31t-135 88q-59 59 -90 142.5t-31 187.5zM434 410q0 -113 45 -181.5 t150 -68.5q86 0 145.5 57t96 137t54 167t17.5 147q0 33 -7 73.5t-26.5 76.5t-57.5 60.5t-99 24.5q-63 0 -111.5 -28.5t-84.5 -74.5t-58.5 -102.5t-37 -111t-20.5 -102t-6 -74.5zM688 1178l193 278h288l-278 -278h-203z" />
<glyph unicode="&#xf4;" horiz-adv-x="1165" d="M174 420q0 102 35 220t106.5 218t184 167t266.5 67q111 0 190.5 -35t130.5 -86q70 -70 92.5 -153t22.5 -159q0 -72 -13 -145.5t-40 -143t-67 -133t-91 -114.5q-72 -72 -165 -112t-199 -40q-121 0 -197 31t-135 88q-59 59 -90 142.5t-31 187.5zM434 410q0 -113 45 -181.5 t150 -68.5q86 0 145.5 57t96 137t54 167t17.5 147q0 33 -7 73.5t-26.5 76.5t-57.5 60.5t-99 24.5q-63 0 -111.5 -28.5t-84.5 -74.5t-58.5 -102.5t-37 -111t-20.5 -102t-6 -74.5zM461 1178l330 278h223l186 -278h-244l-82 125l-147 -125h-266z" />
<glyph unicode="&#xf5;" horiz-adv-x="1165" d="M174 420q0 102 35 220t106.5 218t184 167t266.5 67q111 0 190.5 -35t130.5 -86q70 -70 92.5 -153t22.5 -159q0 -72 -13 -145.5t-40 -143t-67 -133t-91 -114.5q-72 -72 -165 -112t-199 -40q-121 0 -197 31t-135 88q-59 59 -90 142.5t-31 187.5zM434 410q0 -113 45 -181.5 t150 -68.5q86 0 145.5 57t96 137t54 167t17.5 147q0 33 -7 73.5t-26.5 76.5t-57.5 60.5t-99 24.5q-63 0 -111.5 -28.5t-84.5 -74.5t-58.5 -102.5t-37 -111t-20.5 -102t-6 -74.5zM444 1188q23 111 89.5 185.5t175.5 74.5q57 0 94 -16.5t84 -34.5l43 -16q14 -5 37 -5 q35 0 55 28t27 56h153q-23 -111 -90.5 -185.5t-161.5 -74.5q-53 0 -86 14.5t-63.5 24.5t-57 20.5t-61.5 10.5q-33 0 -53.5 -26.5t-30.5 -55.5h-154z" />
<glyph unicode="&#xf6;" horiz-adv-x="1165" d="M174 420q0 102 35 220t106.5 218t184 167t266.5 67q111 0 190.5 -35t130.5 -86q70 -70 92.5 -153t22.5 -159q0 -72 -13 -145.5t-40 -143t-67 -133t-91 -114.5q-72 -72 -165 -112t-199 -40q-121 0 -197 31t-135 88q-59 59 -90 142.5t-31 187.5zM434 410q0 -113 45 -181.5 t150 -68.5q86 0 145.5 57t96 137t54 167t17.5 147q0 33 -7 73.5t-26.5 76.5t-57.5 60.5t-99 24.5q-63 0 -111.5 -28.5t-84.5 -74.5t-58.5 -102.5t-37 -111t-20.5 -102t-6 -74.5zM532 1317q0 55 38 97t91.5 42t92.5 -42t39 -97t-39 -97t-92.5 -42t-91.5 42t-38 97zM895 1317 q0 55 38 97t91 42t92 -42t39 -97t-39 -97t-92 -42t-91 42t-38 97z" />
<glyph unicode="&#xf7;" d="M178 575v220h1004v-220h-1004zM516 1075q0 35 13.5 65.5t37 53.5t53 35t62.5 12q68 0 117 -49t49 -117q0 -31 -13.5 -61.5t-36 -54t-52 -38t-64.5 -14.5q-33 0 -62.5 13.5t-53 36t-37 53t-13.5 65.5zM516 299q0 35 13.5 65.5t37 53t53 36t62.5 13.5q68 0 117 -49t49 -119 q0 -31 -13.5 -61.5t-36 -53t-52 -37t-64.5 -14.5q-33 0 -62.5 13.5t-53 36t-37 52t-13.5 64.5z" />
<glyph unicode="&#xf8;" horiz-adv-x="1107" d="M92 55l113 111q-29 53 -45.5 116.5t-16.5 137.5q0 102 35 220t106.5 218t184.5 167t266 67q100 0 174 -29t127 -72l113 111l108 -115l-124 -125q23 -51 30.5 -103t7.5 -100q0 -72 -13 -145.5t-39.5 -143t-66.5 -133t-91 -114.5q-72 -72 -165.5 -112t-199.5 -40 q-98 0 -167 20.5t-122 61.5l-110 -110zM403 388q1 -11 3 -21l466 460q-23 33 -57.5 54.5t-93.5 21.5q-63 0 -111.5 -28.5t-84.5 -74.5t-58.5 -102.5t-36.5 -111t-20.5 -102.5t-6.5 -74v-22zM467 207q47 -47 131 -47q82 0 139.5 53t95 129t56 160t22.5 145z" />
<glyph unicode="&#xf9;" horiz-adv-x="1249" d="M219 197q0 41 4 88t21 116l112 494h-116q-8 31 -9.5 42t-1.5 21q0 63 43 105h377l-153 -672q-18 -86 -19 -131q0 -23 7.5 -36t17.5 -23q10 -12 30.5 -18.5t42.5 -6.5q43 0 93.5 34t97.5 97.5t88 156.5t66 210l79 389h254l-180 -895h117q6 -31 7 -42t1 -22q0 -66 -41 -104 h-344l43 213q-18 -35 -52 -77t-81 -79t-106.5 -61.5t-127.5 -24.5q-125 0 -197.5 61t-72.5 165zM496 1456h288l193 -278h-203z" />
<glyph unicode="&#xfa;" horiz-adv-x="1249" d="M219 197q0 41 4 88t21 116l112 494h-116q-8 31 -9.5 42t-1.5 21q0 63 43 105h377l-153 -672q-18 -86 -19 -131q0 -23 7.5 -36t17.5 -23q10 -12 30.5 -18.5t42.5 -6.5q43 0 93.5 34t97.5 97.5t88 156.5t66 210l79 389h254l-180 -895h117q6 -31 7 -42t1 -22q0 -66 -41 -104 h-344l43 213q-18 -35 -52 -77t-81 -79t-106.5 -61.5t-127.5 -24.5q-125 0 -197.5 61t-72.5 165zM752 1178l192 278h289l-279 -278h-202z" />
<glyph unicode="&#xfb;" horiz-adv-x="1249" d="M219 197q0 41 4 88t21 116l112 494h-116q-8 31 -9.5 42t-1.5 21q0 63 43 105h377l-153 -672q-18 -86 -19 -131q0 -23 7.5 -36t17.5 -23q10 -12 30.5 -18.5t42.5 -6.5q43 0 93.5 34t97.5 97.5t88 156.5t66 210l79 389h254l-180 -895h117q6 -31 7 -42t1 -22q0 -66 -41 -104 h-344l43 213q-18 -35 -52 -77t-81 -79t-106.5 -61.5t-127.5 -24.5q-125 0 -197.5 61t-72.5 165zM457 1178l329 278h224l186 -278h-244l-82 125l-147 -125h-266z" />
<glyph unicode="&#xfc;" horiz-adv-x="1249" d="M219 197q0 41 4 88t21 116l112 494h-116q-8 31 -9.5 42t-1.5 21q0 63 43 105h377l-153 -672q-18 -86 -19 -131q0 -23 7.5 -36t17.5 -23q10 -12 30.5 -18.5t42.5 -6.5q43 0 93.5 34t97.5 97.5t88 156.5t66 210l79 389h254l-180 -895h117q6 -31 7 -42t1 -22q0 -66 -41 -104 h-344l43 213q-18 -35 -52 -77t-81 -79t-106.5 -61.5t-127.5 -24.5q-125 0 -197.5 61t-72.5 165zM504 1317q0 55 38 97t91 42t92 -42t39 -97t-39 -97t-92 -42t-91 42t-38 97zM866 1317q0 55 38 97t91.5 42t92 -42t38.5 -97t-38.5 -97t-92 -42t-91.5 42t-38 97z" />
<glyph unicode="&#xfd;" horiz-adv-x="1064" d="M-2 -315l55 198q49 -27 91 -35t81 -8q94 0 195 94q47 43 96 109l-61 222l-67 223l-66 213l-64 194h-113q-6 31 -7 42t-1 21q0 66 41 105h283q25 -61 55 -154l65 -196l65 -210l56 -194q39 65 75 134t62.5 138.5t43 135t16.5 125.5q0 14 -1 27.5t-3 25.5h-150q-6 31 -7 42 t-1 21q0 66 41 105h322q25 -59 30 -100t5 -74q0 -115 -44 -249t-113 -268t-155 -260t-168 -225q-51 -61 -101 -108t-105.5 -80t-117 -50.5t-132.5 -17.5q-51 0 -108.5 13.5t-92.5 40.5zM618 1178l193 278h289l-279 -278h-203z" />
<glyph unicode="&#xfe;" horiz-adv-x="1214" d="M-16 -281q0 66 41 105h116l314 1560h-117q-6 31 -7 42.5t-1 21.5q0 66 41 104h372l-125 -614q59 78 133 116t177 38q66 0 122 -21.5t95 -60.5q57 -57 82.5 -137t25.5 -183q0 -176 -55 -320.5t-162 -250.5q-78 -78 -167 -113t-177 -35q-76 0 -142.5 28t-103.5 81l-51 -256 h137q8 -31 9.5 -42t1.5 -22q0 -66 -43 -104h-508q-6 31 -7 42t-1 21zM502 360q0 -100 45 -147t112.5 -47t127 44t103.5 114.5t68.5 160.5t24.5 181q0 115 -43 161q-18 20 -40.5 30.5t-57.5 10.5q-43 0 -89 -19.5t-91 -68.5q-35 -39 -64 -88t-50.5 -104.5t-33.5 -114 t-12 -113.5z" />
<glyph unicode="&#xff;" horiz-adv-x="1064" d="M-2 -315l55 198q49 -27 91 -35t81 -8q94 0 195 94q47 43 96 109l-61 222l-67 223l-66 213l-64 194h-113q-6 31 -7 42t-1 21q0 66 41 105h283q25 -61 55 -154l65 -196l65 -210l56 -194q39 65 75 134t62.5 138.5t43 135t16.5 125.5q0 14 -1 27.5t-3 25.5h-150q-6 31 -7 42 t-1 21q0 66 41 105h322q25 -59 30 -100t5 -74q0 -115 -44 -249t-113 -268t-155 -260t-168 -225q-51 -61 -101 -108t-105.5 -80t-117 -50.5t-132.5 -17.5q-51 0 -108.5 13.5t-92.5 40.5zM391 1317q0 55 38 97t91 42t92 -42t39 -97t-39 -97t-92 -42t-91 42t-38 97zM754 1317 q0 55 37.5 97t91 42t92.5 -42t39 -97t-39 -97t-92.5 -42t-91 42t-37.5 97z" />
<glyph unicode="&#x152;" horiz-adv-x="2086" d="M238 602q0 90 17 184.5t51 183.5t86 171t120 149q100 98 241.5 156.5t342.5 58.5q125 0 228 -6t181 -6h764l-90 -449q-37 -10 -60.5 -13t-39.5 -3q-25 0 -47.5 5t-59.5 20l49 245h-456l-88 -434h530q8 -31 9 -48t1 -28q0 -35 -10 -61.5t-29 -56.5h-540l-97 -475h492 l51 258q35 12 59.5 15t41.5 3q20 0 46.5 -5t59.5 -20l-86 -446h-735q-111 0 -217.5 -7t-216.5 -7q-168 0 -282 55t-184.5 143t-101 198.5t-30.5 219.5zM522 586q0 -186 88 -285.5t260 -99.5q55 0 110.5 3t102.5 11l207 1065q-43 4 -91 7t-124 3q-115 0 -203 -38t-153 -105 q-94 -96 -145.5 -239.5t-51.5 -321.5z" />
<glyph unicode="&#x153;" horiz-adv-x="1771" d="M174 420q0 102 35 220t106.5 218t184 167t266.5 67q111 0 202 -42t150 -135q72 78 167 127.5t226 49.5q86 0 152 -21.5t109 -59.5t64.5 -89.5t21.5 -110.5q0 -84 -44.5 -157.5t-131.5 -129t-217 -88.5t-300 -33q4 -129 66.5 -177t163.5 -48q45 0 87 8.5t85 26.5t90 47 t100 70l-35 -252q-86 -49 -182 -78t-207 -29q-98 0 -189 36t-153 136q-72 -86 -165 -129t-199 -43q-121 0 -197 31t-135 88q-59 59 -90 142.5t-31 187.5zM434 410q0 -113 45 -181.5t150 -68.5q86 0 145.5 57t96 137t54 167t17.5 147q0 33 -7 73.5t-26.5 76.5t-57.5 60.5 t-99 24.5q-63 0 -111.5 -28.5t-84.5 -74.5t-58.5 -102.5t-37 -111t-20.5 -102t-6 -74.5zM1186 588q117 0 197.5 19.5t132 50t74 68.5t22.5 75q0 49 -27 78q-16 16 -40.5 26t-61.5 10q-47 0 -93.5 -24.5t-85 -67.5t-69.5 -103t-49 -132z" />
<glyph unicode="&#x178;" horiz-adv-x="1425" d="M299 1380q0 33 9 58.5t28 54.5h520q6 -33 7 -45t1 -23q0 -33 -9 -58.5t-28 -53.5h-143l199 -498l417 498h-149q-6 35 -7 47t-1 20q0 33 9 58.5t28 54.5h514q6 -33 7 -45t1 -23q0 -33 -9.5 -58.5t-27.5 -53.5h-94l-604 -725l-82 -408h143q6 -35 7 -47t1 -20 q0 -33 -9 -58.5t-28 -54.5h-540q-6 33 -7 45t-1 23q0 33 9 58.5t27 53.5h131l87 426l-293 707h-105q-6 35 -7 47t-1 20zM735 1751q0 55 38 97t91.5 42t92 -42t38.5 -97t-38.5 -97t-92 -42t-91.5 42t-38 97zM1098 1751q0 55 38 97t91 42t92 -42t39 -97t-39 -97t-92 -42 t-91 42t-38 97z" />
<glyph unicode="&#x2c6;" horiz-adv-x="778" d="M268 1178l330 278h223l187 -278h-244l-82 125l-147 -125h-267z" />
<glyph unicode="&#x2dc;" horiz-adv-x="778" d="M252 1188q23 111 89.5 185.5t174.5 74.5q57 0 94 -16.5t84 -34.5l43 -16q14 -5 37 -5q35 0 55.5 28t26.5 56h154q-23 -111 -90.5 -185.5t-161.5 -74.5q-53 0 -86 14.5t-63.5 24.5t-57.5 20.5t-62 10.5q-33 0 -53 -26.5t-30 -55.5h-154z" />
<glyph unicode="&#x2013;" horiz-adv-x="1024" d="M96 457v221h1024v-221h-1024z" />
<glyph unicode="&#x2014;" horiz-adv-x="2048" d="M96 457v221h2048v-221h-2048z" />
<glyph unicode="&#x2015;" horiz-adv-x="2048" d="M96 457v221h2048v-221h-2048z" />
<glyph unicode="&#x2018;" horiz-adv-x="649" d="M367 1042q0 96 34.5 179.5t94 147t137.5 104t164 57.5l-27 -168q-86 -39 -131 -83t-64 -108q37 -4 63 -19t43 -38.5t24.5 -51.5t7.5 -54q0 -90 -46 -136.5t-118 -46.5q-86 0 -134 62.5t-48 154.5z" />
<glyph unicode="&#x2019;" horiz-adv-x="649" d="M346 825l27 168q86 39 131 83t63 108q-37 2 -62.5 18.5t-43 40t-24.5 51t-7 54.5q0 90 46 136t118 46q86 0 134 -62.5t48 -154.5q0 -96 -34.5 -179t-94 -146.5t-137.5 -106t-164 -56.5z" />
<glyph unicode="&#x201a;" horiz-adv-x="649" d="M92 -387l27 168q86 39 131 83t63 107q-37 2 -62.5 18.5t-43 40t-24.5 51.5t-7 54q0 90 46 136t118 46q86 0 134 -62t48 -155q0 -96 -34.5 -179t-94 -146.5t-137.5 -105.5t-164 -56z" />
<glyph unicode="&#x201c;" horiz-adv-x="1114" d="M367 1042q0 96 34.5 179.5t94 147t137.5 104t164 57.5l-27 -168q-86 -39 -131 -83t-64 -108q37 -4 63 -19t43 -38.5t24.5 -51.5t7.5 -54q0 -90 -46 -136.5t-118 -46.5q-86 0 -134 62.5t-48 154.5zM831 1042q0 96 35 179.5t94.5 147t137.5 104t164 57.5l-27 -168 q-86 -39 -131 -83t-64 -108q37 -4 62.5 -19t43 -38.5t25 -51.5t7.5 -54q0 -90 -46.5 -136.5t-117.5 -46.5q-86 0 -134.5 62.5t-48.5 154.5z" />
<glyph unicode="&#x201d;" horiz-adv-x="1114" d="M346 825l27 168q86 39 131 83t63 108q-37 2 -62.5 18.5t-43 40t-24.5 51t-7 54.5q0 90 46 136t118 46q86 0 134 -62.5t48 -154.5q0 -96 -34.5 -179t-94 -146.5t-137.5 -106t-164 -56.5zM811 825l27 168q86 39 131 83t63 108q-37 2 -62.5 18.5t-43 40t-24.5 51t-7 54.5 q0 90 46 136t118 46q86 0 134 -62.5t48 -154.5q0 -96 -35 -179t-94 -146.5t-137 -106t-164 -56.5z" />
<glyph unicode="&#x201e;" horiz-adv-x="1155" d="M92 -387l27 168q86 39 131 83t63 107q-37 2 -62.5 18.5t-43 40t-24.5 51.5t-7 54q0 90 46 136t118 46q86 0 134 -62t48 -155q0 -96 -34.5 -179t-94 -146.5t-137.5 -105.5t-164 -56zM557 -387l27 168q86 39 131 83t63 107q-37 2 -62.5 18.5t-43 40t-24.5 51.5t-7 54 q0 90 46 136t118 46q86 0 134 -62t48 -155q0 -96 -34.5 -179t-94 -146.5t-137.5 -105.5t-164 -56z" />
<glyph unicode="&#x2022;" horiz-adv-x="851" d="M211 735q0 72 26.5 136.5t74.5 112.5t111.5 77t137.5 29t138.5 -28t112.5 -76t75.5 -112.5t27.5 -138t-27.5 -137t-75.5 -111t-112.5 -75t-138.5 -27.5t-137.5 26.5t-110.5 75t-74.5 111.5t-27.5 137z" />
<glyph unicode="&#x2026;" horiz-adv-x="2048" d="M215 125q0 37 13.5 69.5t36 56t52 38t62.5 14.5q66 0 108.5 -44t42.5 -116q0 -33 -12 -63.5t-33.5 -55t-52.5 -39t-67 -14.5q-25 0 -51.5 10.5t-48 30t-36 48t-14.5 65.5zM897 125q0 37 13.5 69.5t36 56t52 38t62.5 14.5q66 0 108.5 -44t42.5 -116q0 -33 -12 -63.5 t-33.5 -55t-52.5 -39t-67 -14.5q-25 0 -51.5 10.5t-48 30t-36 48t-14.5 65.5zM1579 125q0 37 13.5 69.5t36 56t52 38t62.5 14.5q66 0 108.5 -44t42.5 -116q0 -33 -12 -63.5t-33.5 -55t-52.5 -39t-67 -14.5q-25 0 -51.5 10.5t-48 30t-36 48t-14.5 65.5z" />
<glyph unicode="&#x2039;" horiz-adv-x="733" d="M158 524l424 455h297l-449 -475l223 -447h-264z" />
<glyph unicode="&#x203a;" horiz-adv-x="733" d="M61 57l449 475l-223 447h264l231 -467l-424 -455h-297z" />
<glyph unicode="&#x20ac;" d="M104 459l72 147h117q4 35 7 71t9 71h-159l71 147h123q39 131 101.5 226.5t138 157.5t159.5 92t166 30q113 0 180.5 -36t94.5 -83l16 86q27 10 49.5 13t40.5 3q16 0 41 -3t47 -13l-88 -414q-29 -10 -50 -11t-38 -1q-14 0 -38.5 4t-49.5 19q4 20 6 41.5t2 44.5 q0 72 -46 114.5t-132 42.5q-119 0 -198.5 -80.5t-135.5 -232.5h504l-72 -147h-473q-8 -35 -12 -70l-8 -72h430l-72 -147h-364q6 -139 75 -207q63 -63 189 -64q98 0 191.5 37t158.5 84l-55 -266q-61 -33 -156.5 -54.5t-191.5 -21.5q-102 0 -186.5 31t-143.5 90 q-66 66 -98.5 161t-36.5 210h-185z" />
<glyph unicode="&#x2122;" horiz-adv-x="2119" d="M301 1202v291h750v-291q-33 -8 -47.5 -10t-26.5 -2q-14 0 -29.5 2t-44.5 10v158h-145v-569h82q8 -29 10 -43.5t2 -28.5q0 -10 -2 -24.5t-12 -41.5h-326q-8 27 -10 41.5t-2 24.5q0 14 2 28.5t10 43.5h82v569h-148v-158q-27 -8 -42 -10t-29.5 -2t-27.5 2t-46 10zM1114 1425 q0 12 4 26.5t17 41.5h290l193 -604l192 604h297q8 -29 10.5 -43t2.5 -25q0 -14 -3 -27.5t-14 -41.5h-73v-565h77q8 -29 10.5 -43.5t2.5 -28.5q0 -10 -3 -24.5t-14 -41.5h-303q-10 27 -13 41.5t-3 24.5q0 14 2 28.5t10 43.5h76v473l-191 -590h-145l-186 588v-471h75 q10 -29 13.5 -43.5t3.5 -28.5q0 -18 -17 -66h-290q-12 25 -16.5 39.5t-4.5 26.5q0 16 4 29.5t15 42.5h71v565h-69q-12 27 -16.5 41t-4.5 28z" />
<glyph unicode="&#xe000;" horiz-adv-x="1065" d="M0 1065h1065v-1065h-1065v1065z" />
<glyph unicode="&#xfb01;" horiz-adv-x="1267" d="M-96 -322l47 185q41 -18 75.5 -24.5t63.5 -6.5q47 0 86 37t57 141l150 885h-158q-6 31 -7 42t-1 21q0 66 41 105h154l20 113q23 121 73 197.5t114.5 120.5t136 60.5t133.5 16.5q104 0 185 -20.5t155 -55.5l-45 -192q-70 35 -139.5 50t-118.5 15q-117 0 -172.5 -57.5 t-71.5 -161.5l-14 -86h616l-180 -895h117q8 -31 9 -42t1 -22q0 -66 -43 -104h-373l180 895h-356l-154 -895q-18 -109 -55 -179.5t-87 -112.5t-111.5 -59.5t-129.5 -17.5q-66 0 -111.5 13.5t-86.5 33.5z" />
<glyph unicode="&#xfb02;" horiz-adv-x="1267" d="M-96 -322l47 185q41 -18 75.5 -24.5t63.5 -6.5q47 0 86 37t57 141l150 885h-158q-6 31 -7 42t-1 21q0 66 41 105h154l20 113q23 121 73 197.5t114.5 120.5t136 60.5t133.5 16.5q104 0 185 -20.5t155 -55.5l-45 -192q-70 35 -139.5 50t-118.5 15q-117 0 -172.5 -57.5 t-71.5 -161.5l-14 -86h616l-180 -895h117q8 -31 9 -42t1 -22q0 -66 -43 -104h-373l180 895h-356l-154 -895q-18 -109 -55 -179.5t-87 -112.5t-111.5 -59.5t-129.5 -17.5q-66 0 -111.5 13.5t-86.5 33.5z" />
<glyph unicode="&#xfb03;" horiz-adv-x="1886" d="M-96 -322l47 185q41 -18 75.5 -24.5t63.5 -6.5q47 0 86 37t57 141l150 885h-158q-6 31 -7 42t-1 21q0 66 41 105h154l20 113q23 121 73 197.5t114.5 120.5t136 60.5t133.5 16.5q102 0 185 -20.5t161 -59.5q66 47 137.5 63.5t134.5 16.5q104 0 185.5 -20.5t154.5 -55.5 l-45 -192q-70 35 -139.5 50t-118.5 15q-117 0 -172 -57.5t-72 -161.5l-14 -86h617l-181 -895h117q8 -31 9 -42t1 -22q0 -66 -43 -104h-372l180 895h-357l-153 -895q-18 -109 -55 -179.5t-87.5 -112.5t-112 -59.5t-128.5 -17.5q-66 0 -112 13.5t-87 33.5l47 185 q41 -18 76 -24.5t64 -6.5q47 0 86 37t57 141l149 885h-362l-154 -895q-18 -109 -55 -179.5t-87 -112.5t-111.5 -59.5t-129.5 -17.5q-66 0 -111.5 13.5t-86.5 33.5zM668 1063h362l21 113q8 47 20 83.5t29 71.5q-31 16 -82 26.5t-92 10.5q-117 0 -172.5 -57.5t-71.5 -161.5z " />
<glyph unicode="&#xfb04;" horiz-adv-x="1890" d="M-96 -322l47 185q41 -18 75.5 -24.5t63.5 -6.5q47 0 86 37t57 141l150 885h-158q-6 31 -7 42t-1 21q0 66 41 105h154l20 113q23 121 73 197.5t114.5 120.5t136 60.5t133.5 16.5q102 0 189 -21.5t163 -62.5q57 41 131 62.5t170 21.5q137 0 243.5 -35t194.5 -84l-258 -1284 h115q8 -31 9 -42t1 -22q0 -66 -43 -104h-370l270 1341q-39 16 -81 26.5t-93 10.5q-55 0 -95 -18.5t-66 -49t-41 -70.5t-23 -83l-19 -94h187q6 -31 7 -42t1 -22q0 -66 -41 -104h-183l-153 -895q-18 -109 -55 -179.5t-87.5 -112.5t-112 -59.5t-128.5 -17.5q-66 0 -112 13.5 t-87 33.5l47 185q41 -18 76 -24.5t64 -6.5q47 0 86 37t57 141l149 885h-362l-154 -895q-18 -109 -55 -179.5t-87 -112.5t-111.5 -59.5t-129.5 -17.5q-66 0 -111.5 13.5t-86.5 33.5zM668 1063h362l21 100q10 47 21 87t32 77q-23 12 -71 26.5t-107 14.5q-117 0 -172.5 -57.5 t-71.5 -161.5z" />
</font>
</defs>
</svg>
